<?xml version="1.0" encoding="UTF-8"?>
<svg xmlns="http://www.w3.org/2000/svg" width="303" height="40" viewBox="0 0 303 40" fill="none">
  <path d="M296.307 35.5034C294.154 35.5034 292.361 34.9865 290.958 33.9526C289.565 32.9188 288.776 31.5338 288.62 29.7782H291.153C291.27 30.8998 291.776 31.8167 292.682 32.4994C293.598 33.1821 294.806 33.5235 296.326 33.5235C297.661 33.5235 298.713 33.2016 299.483 32.5482C300.243 31.8947 300.623 31.0851 300.623 30.1001C300.623 29.4466 300.408 28.9004 299.99 28.4712C299.561 28.0421 299.035 27.7105 298.382 27.4666C297.729 27.2228 296.862 26.9497 295.751 26.6766C294.329 26.2962 293.17 25.9354 292.293 25.5647C291.426 25.2038 290.685 24.6479 290.062 23.9164C289.438 23.1849 289.117 22.2096 289.117 20.9806C289.117 20.0248 289.389 19.1275 289.954 18.3179C290.5 17.5084 291.289 16.8549 292.312 16.3673C293.325 15.8796 294.495 15.6358 295.82 15.6358C297.885 15.6358 299.551 16.1527 300.827 17.2061C302.104 18.2594 302.766 19.7029 302.873 21.5268H300.418C300.34 20.3662 299.902 19.4298 299.093 18.6983C298.285 17.9668 297.164 17.6059 295.771 17.6059C294.495 17.6059 293.491 17.9083 292.721 18.5228C291.961 19.1275 291.582 19.9078 291.582 20.8246C291.582 21.5853 291.806 22.19 292.264 22.6777C292.721 23.1654 293.296 23.5458 293.978 23.7994C294.66 24.0725 295.576 24.3748 296.726 24.6967C298.06 25.0478 299.152 25.3989 300.009 25.7598C300.857 26.1109 301.578 26.6278 302.133 27.3106C302.708 27.9933 303 28.8906 303 30.0318C303 31.0656 302.727 31.9922 302.162 32.8213C301.617 33.6405 300.827 34.294 299.824 34.7719C298.811 35.2401 297.641 35.4742 296.297 35.4742M282.794 25.5647C282.794 24.0139 282.472 22.6387 281.839 21.4683C281.206 20.2979 280.338 19.3811 279.237 18.7471C278.146 18.1034 276.948 17.7913 275.623 17.7913C274.298 17.7913 273.041 18.0936 271.96 18.7081C270.878 19.3225 270.031 20.2199 269.407 21.3708C268.784 22.5412 268.462 23.9262 268.462 25.5257C268.462 27.1253 268.784 28.4907 269.407 29.6807C270.031 30.8706 270.878 31.7776 271.96 32.4019C273.041 33.0261 274.269 33.3479 275.623 33.3479C276.977 33.3479 278.146 33.0261 279.237 32.3921C280.329 31.7484 281.196 30.8511 281.839 29.6709C282.472 28.5005 282.794 27.1253 282.794 25.5745V25.5647ZM265.978 25.5355C265.978 23.5555 266.367 21.8194 267.176 20.3271C267.985 18.8349 269.076 17.6742 270.469 16.8549C271.862 16.0454 273.45 15.6358 275.204 15.6358C276.958 15.6358 278.419 16.0454 279.793 16.8647C281.157 17.684 282.16 18.7666 282.784 20.0736V9.05222H285.258V35.2011H282.784V30.8901C282.19 32.2263 281.235 33.3382 279.9 34.1965C278.565 35.045 276.987 35.4937 275.175 35.4937C273.363 35.4937 271.833 35.084 270.44 34.2648C269.047 33.4455 267.946 32.2751 267.156 30.7633C266.367 29.2515 265.968 27.5056 265.968 25.5257L265.978 25.5355ZM254.968 15.5675C257.277 15.5675 259.148 16.2795 260.6 17.7035C262.061 19.1372 262.782 21.1854 262.782 23.8969V35.2108H260.356V24.1895C260.356 22.0925 259.84 20.493 258.787 19.3811C257.735 18.2692 256.313 17.723 254.501 17.723C252.689 17.723 251.159 18.3179 250.068 19.4884C248.957 20.6588 248.411 22.3949 248.411 24.6772V35.2108H245.937V15.9284H248.411V19.2153C249.016 18.0449 249.902 17.128 251.052 16.5038C252.201 15.8796 253.517 15.5577 254.968 15.5577V15.5772V15.5675ZM241.504 15.9284V35.2108H239.029V15.9284H241.504ZM240.257 12.2806C239.76 12.2806 239.341 12.0953 238.98 11.7442C238.63 11.393 238.454 10.9541 238.454 10.4372C238.454 9.92027 238.639 9.49112 238.98 9.14C239.331 8.80838 239.75 8.62307 240.257 8.62307C240.763 8.62307 241.163 8.78887 241.533 9.14C241.884 9.47161 242.069 9.92027 242.069 10.4372C242.069 10.9541 241.884 11.393 241.533 11.7442C241.182 12.0953 240.763 12.2806 240.257 12.2806ZM227.075 15.5675C229.335 15.5675 231.177 16.2795 232.589 17.7035C234.012 19.1372 234.713 21.1854 234.713 23.8969V35.2108H232.287V24.1895C232.287 22.0925 231.79 20.493 230.767 19.3811C229.754 18.2692 228.38 17.723 226.636 17.723C224.893 17.723 223.382 18.3179 222.311 19.5176C221.229 20.7173 220.684 22.4534 220.684 24.7552V35.2108H218.258V24.1895C218.258 22.0925 217.761 20.493 216.738 19.3811C215.725 18.2692 214.341 17.723 212.578 17.723C210.814 17.723 209.324 18.3179 208.232 19.5176C207.151 20.7173 206.605 22.4534 206.605 24.7552V35.2108H204.131V15.9284H206.605V19.2445C207.209 18.0449 208.077 17.128 209.216 16.5038C210.337 15.8796 211.603 15.5577 212.987 15.5577C214.653 15.5577 216.114 15.9576 217.381 16.7574C218.638 17.5669 219.553 18.7373 220.119 20.2881C220.635 18.7471 221.512 17.5767 222.778 16.7672C224.035 15.9576 225.467 15.548 227.065 15.548L227.094 15.5675H227.075ZM181.888 25.3501C181.888 23.2922 182.297 21.5171 183.135 19.976C183.973 18.435 185.142 17.2646 186.633 16.4453C188.123 15.626 189.838 15.2164 191.767 15.2164C194.222 15.2164 196.298 15.8698 197.944 17.167C199.6 18.4642 200.692 20.2881 201.208 22.6485H194.787C194.242 21.1367 193.209 20.3759 191.641 20.3759C190.53 20.3759 189.653 20.8051 189 21.6731C188.347 22.5217 188.016 23.7603 188.016 25.3697C188.016 26.979 188.347 28.1981 189 29.0662C189.653 29.9147 190.53 30.3634 191.641 30.3634C193.19 30.3634 194.232 29.6026 194.787 28.0909H201.208C200.692 30.4024 199.6 32.2165 197.925 33.5235C196.259 34.85 194.203 35.5034 191.757 35.5034C189.828 35.5034 188.114 35.0938 186.623 34.2745C185.132 33.4552 183.963 32.2653 183.125 30.7438C182.288 29.2027 181.878 27.4276 181.878 25.3697V25.3501H181.888ZM179.628 15.4992V35.2108H173.597V15.4992H179.628ZM176.637 13.451C175.575 13.451 174.708 13.1291 174.035 12.5049C173.363 11.8807 173.032 11.1004 173.032 10.1934C173.032 9.2863 173.363 8.47677 174.035 7.85255C174.708 7.22833 175.565 6.90647 176.637 6.90647C177.708 6.90647 178.517 7.22833 179.189 7.85255C179.862 8.47677 180.193 9.25704 180.193 10.1934C180.193 11.1297 179.862 11.8807 179.189 12.5049C178.527 13.1291 177.669 13.451 176.637 13.451ZM164.108 25.3501C164.108 23.8384 163.698 22.6582 162.86 21.7902C162.023 20.9221 161.009 20.4832 159.811 20.4832C158.613 20.4832 157.59 20.9124 156.762 21.7804C155.924 22.6485 155.514 23.8189 155.514 25.3306C155.514 26.8424 155.924 28.0421 156.762 28.9199C157.599 29.8075 158.613 30.2464 159.811 30.2464C161.009 30.2464 162.032 29.8075 162.86 28.9394C163.698 28.0713 164.108 26.8814 164.108 25.3794V25.3501ZM149.357 25.3209C149.357 23.2922 149.737 21.5171 150.497 19.9955C151.257 18.4545 152.299 17.2841 153.615 16.4648C154.94 15.6455 156.391 15.2359 158.018 15.2359C159.402 15.2359 160.62 15.5285 161.662 16.0844C162.705 16.6501 163.513 17.3914 164.078 18.3082V15.5187H170.109V35.2303H164.078V32.4409C163.484 33.3577 162.685 34.0989 161.633 34.6646C160.581 35.2303 159.373 35.5132 157.989 35.5132C156.391 35.5132 154.94 35.1035 153.615 34.2648C152.29 33.426 151.257 32.236 150.497 30.7048C149.737 29.1637 149.357 27.3691 149.357 25.3501V25.3209ZM139.76 35.5034C138.075 35.5034 136.555 35.2108 135.22 34.6159C133.886 34.0209 132.824 33.2114 132.044 32.197C131.275 31.1729 130.826 30.022 130.739 28.7541H136.691C136.769 29.4856 137.071 30.061 137.637 30.4999C138.182 30.9388 138.884 31.1534 139.731 31.1534C140.491 31.1534 141.066 30.9974 141.475 30.695C141.884 30.3927 142.099 29.983 142.099 29.4661C142.099 28.9004 141.806 28.481 141.222 28.1884C140.628 27.8958 139.673 27.6129 138.338 27.3008C136.925 26.9692 135.756 26.6278 134.831 26.2767C133.905 25.9256 133.096 25.3501 132.434 24.5601C131.771 23.7701 131.43 22.7167 131.43 21.3903C131.43 20.2296 131.752 19.1958 132.375 18.2692C132.999 17.3426 133.905 16.5916 135.113 16.0454C136.312 15.4992 137.744 15.2066 139.41 15.2066C141.884 15.2066 143.833 15.8113 145.246 17.05C146.678 18.2692 147.477 19.898 147.691 21.917H142.118C142.031 21.1854 141.728 20.61 141.222 20.2004C140.725 19.7907 140.053 19.5761 139.234 19.5761C138.533 19.5761 137.987 19.7127 137.607 20.0053C137.227 20.2979 137.042 20.688 137.042 21.205C137.042 21.7707 137.344 22.19 137.939 22.4826C138.533 22.7752 139.468 23.0483 140.744 23.3312C142.167 23.6823 143.375 24.0432 144.301 24.4138C145.246 24.7747 146.045 25.3697 146.727 26.1792C147.408 26.9887 147.74 28.0811 147.74 29.4563C147.74 30.617 147.418 31.6508 146.785 32.5579C146.152 33.4747 145.226 34.2062 144.018 34.7232C142.8 35.2401 141.387 35.5034 139.77 35.5034V35.4839L139.76 35.5034ZM119.194 30.2951C120.353 30.2951 121.317 29.866 122.136 28.9979C122.944 28.1494 123.354 26.9107 123.354 25.3404C123.354 23.7701 122.964 22.5412 122.165 21.6829C121.376 20.8343 120.402 20.3857 119.252 20.3857C118.102 20.3857 117.099 20.8148 116.319 21.6634C115.54 22.5119 115.15 23.7311 115.15 25.3306C115.15 26.9302 115.53 28.1299 116.29 28.9882C117.05 29.8367 118.005 30.2854 119.164 30.2854H119.194V30.2951ZM119.194 35.5034C117.264 35.5034 115.53 35.0938 114.001 34.2745C112.471 33.4552 111.253 32.2653 110.367 30.7438C109.49 29.2027 109.042 27.4276 109.042 25.3697C109.042 23.3117 109.48 21.5658 110.376 20.015C111.273 18.474 112.491 17.2938 114.04 16.4648C115.589 15.6455 117.333 15.2359 119.262 15.2359C121.191 15.2359 122.925 15.6455 124.484 16.4648C126.033 17.2841 127.261 18.474 128.147 20.015C129.043 21.5561 129.482 23.3507 129.482 25.3697C129.482 27.3886 129.024 29.1735 128.128 30.7243C127.212 32.2653 125.984 33.4455 124.425 34.2745C122.857 35.0938 121.113 35.5034 119.184 35.5034H119.194ZM98.9189 15.2944C101.364 15.2944 103.303 16.0357 104.755 17.5182C106.197 19.0104 106.927 21.0684 106.927 23.7018V35.2206H100.926V24.5211C100.926 23.2434 100.595 22.2681 99.9224 21.5658C99.2502 20.8636 98.3246 20.532 97.1555 20.532C95.9863 20.532 95.0608 20.8831 94.3885 21.5658C93.7163 22.2681 93.385 23.2434 93.385 24.5211V35.2206H87.3835V24.5211C87.3835 23.2434 87.0522 22.2681 86.38 21.5658C85.7077 20.8636 84.7822 20.532 83.6131 20.532C82.4439 20.532 81.5184 20.8831 80.8461 21.5658C80.1739 22.2681 79.8426 23.2434 79.8426 24.5211V35.2206H73.8119V15.4992H79.8426V17.9766C80.4467 17.1573 81.2553 16.5038 82.2393 16.0161C83.2234 15.5285 84.3535 15.2846 85.5908 15.2846C87.0815 15.2846 88.3967 15.6065 89.5561 16.2405C90.7253 16.8842 91.6411 17.7815 92.2938 18.9617C92.9758 17.879 93.9014 17.0012 95.0705 16.3087C96.2396 15.626 97.5354 15.2846 98.9092 15.2846V15.2651L98.9189 15.2944Z" fill="#003059"></path>
  <path fill-rule="evenodd" clip-rule="evenodd" d="M31.996 38.5953L35.2891 10.3299C35.3768 9.56915 34.9383 8.88641 34.2271 8.64257C33.5159 8.39874 32.7365 8.69134 32.3565 9.34482L19.0187 32.0702C18.6095 32.7725 18.7264 33.7576 19.4279 34.1575L29.4532 39.6974C29.9695 39.99 30.5054 40.107 31.0315 39.8827C31.5674 39.6584 31.9084 39.1805 31.9766 38.605" fill="#F57D7D"></path>
  <path fill-rule="evenodd" clip-rule="evenodd" d="M56.0314 36.2057L41.8752 0.995907C41.5829 0.293662 40.8912 -0.0964736 40.141 0.0205672C39.4005 0.137608 38.8647 0.752072 38.816 1.51284L37.0233 36.7031C37.0038 37.1615 37.1402 37.5517 37.4617 37.8735C37.7637 38.2051 38.1632 38.3612 38.6114 38.3612H54.5602C55.1058 38.3612 55.5637 38.1174 55.8657 37.6589C56.1678 37.2005 56.2262 36.6836 56.0216 36.1862" fill="#8785D1"></path>
  <path fill-rule="evenodd" clip-rule="evenodd" d="M0.156769 36.0399L8.66218 17.2256C8.95446 16.5818 9.578 16.2405 10.2697 16.299C10.9712 16.377 11.4973 16.8647 11.6532 17.5279L15.7646 36.4203C15.8718 36.9079 15.7646 37.3663 15.4431 37.7565C15.1216 38.1369 14.7027 38.3514 14.1961 38.3514L1.57921 38.2636C1.03362 38.2636 0.546478 38.0003 0.254196 37.5321C-0.0478288 37.064 -0.077057 36.5275 0.147026 36.0204" fill="#FFB236"></path>
  <path fill-rule="evenodd" clip-rule="evenodd" d="M25.1469 10.3787L15.0826 5.65803C14.537 5.39469 13.933 5.46296 13.4459 5.84335C12.9587 6.20422 12.7444 6.78943 12.8516 7.38438L15.9303 24.1602C16.0472 24.8332 16.5538 25.3209 17.226 25.4379C17.8983 25.555 18.5316 25.2526 18.8628 24.6772L25.8484 12.622C26.0725 12.2221 26.1212 11.7832 25.9848 11.3443C25.8484 10.9054 25.5561 10.564 25.1469 10.3884V10.3787Z" fill="#69C4BD"></path>
</svg>
