<svg width="40" height="40" viewBox="0 0 40 40" fill="none" xmlns="http://www.w3.org/2000/svg">
<rect width="40" height="40" rx="20" fill="white"/>
<path d="M28.7837 24.4062C28.7837 24.1044 28.744 23.807 28.6676 23.5184C29.1172 22.9912 29.3625 22.3272 29.3625 21.6263C29.3625 20.8474 29.0599 20.1141 28.5105 19.5634C28.3944 19.4471 28.2064 19.4471 28.0903 19.5634L26.9357 20.7208C26.733 20.5117 26.451 20.388 26.1469 20.388C25.906 20.388 25.6754 20.4675 25.4873 20.6088C25.0643 20.2157 24.509 19.9948 23.9214 19.9948C22.6493 19.9948 21.6137 21.0329 21.6137 22.308C21.6137 22.7822 21.7562 23.2224 22.0015 23.589C21.9368 23.8556 21.903 24.1294 21.903 24.4062V24.5697C21.2126 24.6153 20.6647 25.1925 20.6647 25.8963C20.6647 26.6002 21.2479 27.2142 21.9692 27.2259C22.282 28.8059 23.6761 30 25.3434 30C25.5622 30 25.7826 29.9794 25.9971 29.9382C27.3882 29.6702 28.4517 28.5762 28.7191 27.2215C29.4021 27.1685 29.9412 26.5943 29.9412 25.8963C29.9412 25.1984 29.4359 24.661 28.7837 24.5785V24.4062ZM23.9229 20.5882C24.4414 20.5882 24.9262 20.8194 25.2538 21.2243C25.3125 21.2979 25.4021 21.3377 25.4961 21.3348C25.5902 21.3303 25.6768 21.2832 25.7282 21.2052C25.8223 21.0653 25.9794 20.9828 26.1469 20.9828C26.354 20.9828 26.5376 21.1065 26.6155 21.2994C26.6537 21.3922 26.7345 21.4584 26.8314 21.4791C26.9284 21.4982 27.0297 21.4687 27.1003 21.3981L28.2872 20.2083C28.6001 20.6133 28.769 21.1065 28.769 21.6278C28.769 22.2477 28.5281 22.8322 28.0903 23.2695C27.3529 24.0087 26.2057 24.1633 25.3008 23.6435C25.1965 23.5832 25.0657 23.5935 24.9717 23.6671C24.6691 23.9027 24.3063 24.0264 23.9229 24.0264C22.9783 24.0264 22.2086 23.2563 22.2086 22.308C22.2086 21.3598 22.9769 20.5897 23.9229 20.5897V20.5882ZM21.2596 25.8949C21.2596 25.5194 21.5417 25.2087 21.906 25.166V26.5516C21.906 26.5766 21.906 26.6002 21.906 26.6252C21.5417 26.5825 21.2596 26.2718 21.2596 25.8949ZM25.8854 29.3521C25.7077 29.386 25.527 29.4037 25.3448 29.4037C23.776 29.4037 22.498 28.1241 22.498 26.5501V24.4048C22.498 24.3135 22.5024 24.2237 22.5112 24.1338C22.9019 24.4372 23.3911 24.6183 23.9229 24.6183C24.3739 24.6183 24.8028 24.4902 25.1759 24.2472C25.5799 24.4445 26.0147 24.5417 26.448 24.5417C27.0547 24.5417 27.6555 24.3532 28.1594 23.9866C28.1799 24.1235 28.1902 24.2634 28.1902 24.4033V24.8715C28.1902 24.8715 28.1902 24.8745 28.1902 24.8759V26.5486C28.1902 27.915 27.2207 29.093 25.884 29.3492L25.8854 29.3521ZM28.7837 26.6105C28.7837 26.5913 28.7837 26.5707 28.7837 26.5516V25.1807C29.1069 25.2573 29.3478 25.5488 29.3478 25.8949C29.3478 26.2409 29.1069 26.5339 28.7837 26.6105Z" fill="#003059"/>
<path d="M10.025 16.383C10.025 17.1089 10.6082 17.7008 11.3294 17.7126C11.6423 19.2925 13.0364 20.4866 14.7022 20.4866C14.9225 20.4866 15.1414 20.466 15.3559 20.4248C16.747 20.1568 17.8105 19.0628 18.0779 17.7082C18.7609 17.6552 19.3 17.0809 19.3 16.383C19.3 15.9457 19.0885 15.5584 18.7639 15.3155L18.874 15.1373C18.9798 14.968 19.0356 14.7766 19.0371 14.5851V14.5822C19.0371 14.4335 19.0077 14.2877 18.9519 14.1537C19.0914 13.9623 19.1693 13.7297 19.1693 13.4897C19.1693 13.1039 18.9695 12.7476 18.6537 12.5429C18.6537 12.5296 18.6537 12.5164 18.6537 12.5031C18.6537 11.9039 18.1836 11.4121 17.5931 11.3782C17.4535 10.9144 17.0231 10.5757 16.5178 10.5757C16.4502 10.5757 16.3812 10.5816 16.3151 10.5949C16.1241 10.2371 15.7466 10 15.3235 10C15.1003 10 14.8843 10.0663 14.7022 10.1885C14.52 10.0677 14.3041 10 14.0808 10C13.6577 10 13.2817 10.2371 13.0892 10.5949C13.0217 10.5831 12.9541 10.5757 12.8865 10.5757C12.3812 10.5757 11.9493 10.9144 11.8112 11.3782C11.2207 11.4106 10.7506 11.9024 10.7506 12.5031C10.7506 12.5164 10.7506 12.5296 10.7506 12.5429C10.4348 12.7476 10.235 13.1039 10.235 13.4897C10.235 13.7297 10.3129 13.9623 10.4524 14.1537C10.3966 14.2892 10.3672 14.4335 10.3672 14.5822V14.5866C10.3672 14.7766 10.4245 14.968 10.5303 15.1373L10.6155 15.2757C10.2585 15.5142 10.022 15.9206 10.022 16.383H10.025ZM10.6184 16.383C10.6184 16.0075 10.9005 15.6968 11.2648 15.6541V17.0397C11.2648 17.0647 11.2648 17.0883 11.2648 17.1133C10.9005 17.0706 10.6184 16.7599 10.6184 16.383ZM15.2442 19.8402C15.0679 19.8741 14.8858 19.8918 14.7036 19.8918C13.1348 19.8918 11.8582 18.6122 11.8582 17.0382V15.4539C11.9581 15.4833 12.0624 15.498 12.1667 15.498C12.7455 15.498 13.2244 15.0563 13.2831 14.4924C13.4609 14.4438 13.6254 14.3525 13.7606 14.2259C13.8546 14.2509 13.9515 14.2642 14.0499 14.2642C14.2879 14.2642 14.5156 14.1905 14.7036 14.0551C14.8917 14.1905 15.1179 14.2642 15.3573 14.2642C15.4543 14.2642 15.5527 14.2509 15.6467 14.2259C15.7819 14.3525 15.9464 14.4453 16.1241 14.4924C16.1844 15.0578 16.6618 15.498 17.242 15.498C17.3478 15.498 17.4521 15.4833 17.5505 15.4539V17.0382C17.5505 18.4046 16.581 19.5826 15.2442 19.8388V19.8402ZM18.1425 17.0971C18.1425 17.078 18.1425 17.0574 18.1425 17.0382V15.6674C18.4657 15.7439 18.7066 16.0355 18.7066 16.3815C18.7066 16.7275 18.4657 17.0205 18.141 17.0971H18.1425ZM11.0356 14.8222C10.9886 14.7456 10.9636 14.6632 10.9622 14.5837V14.5807C10.9622 14.4718 10.9945 14.3672 11.0562 14.2774C11.1429 14.1537 11.1223 13.9844 11.0092 13.8843C10.8946 13.7827 10.83 13.6384 10.83 13.4852C10.83 13.2629 10.9695 13.0627 11.1766 12.9861C11.3191 12.9331 11.3999 12.7799 11.3617 12.6327C11.35 12.5885 11.3441 12.5444 11.3441 12.4987C11.3441 12.2057 11.5821 11.9672 11.8744 11.9672C11.9141 11.9672 11.9537 11.9716 11.9934 11.9804C12.0815 12.001 12.1741 11.9804 12.2446 11.9245C12.3151 11.8685 12.3577 11.7831 12.3577 11.6933C12.3606 11.4032 12.5971 11.1662 12.888 11.1662C12.9747 11.1662 13.0569 11.1868 13.1333 11.2265C13.217 11.2692 13.3155 11.2707 13.3992 11.231C13.4829 11.1897 13.5432 11.1117 13.5608 11.0204C13.6093 10.7716 13.8281 10.5904 14.0808 10.5904C14.2336 10.5904 14.379 10.6567 14.4789 10.7716C14.5347 10.8363 14.617 10.8732 14.7022 10.8732C14.7874 10.8732 14.8682 10.8363 14.9254 10.7716C15.0268 10.6567 15.1722 10.5904 15.3235 10.5904C15.5777 10.5904 15.7965 10.7716 15.8436 11.0204C15.8612 11.1132 15.9214 11.1912 16.0051 11.231C16.0889 11.2722 16.1888 11.2707 16.271 11.2265C16.3474 11.1868 16.4297 11.1662 16.5163 11.1662C16.8057 11.1662 17.0437 11.4032 17.0466 11.6933C17.0466 11.7831 17.0892 11.8685 17.1598 11.9245C17.2303 11.9804 17.3228 12.001 17.4109 11.9804C17.4491 11.9716 17.4888 11.9672 17.5299 11.9672C17.8223 11.9672 18.0602 12.2057 18.0602 12.4987C18.0602 12.5444 18.0544 12.5885 18.0426 12.6327C18.0044 12.7799 18.0837 12.9331 18.2277 12.9861C18.4348 13.0627 18.5744 13.2629 18.5744 13.4852C18.5744 13.6369 18.5083 13.7827 18.3952 13.8843C18.282 13.9844 18.2615 14.1537 18.3481 14.2774C18.4098 14.3672 18.4422 14.4718 18.4422 14.5807C18.4422 14.6632 18.4172 14.7456 18.3687 14.8222L18.2115 15.0755C18.188 15.071 18.1645 15.0681 18.141 15.0637V14.9356C18.141 14.8134 18.0661 14.7029 17.953 14.6588C17.8399 14.6146 17.7106 14.644 17.6269 14.7339C17.5255 14.8428 17.3874 14.9032 17.2391 14.9032C16.9468 14.9032 16.7088 14.6647 16.7088 14.3716C16.7088 14.3422 16.7117 14.3127 16.7161 14.2818C16.7308 14.1905 16.7044 14.0978 16.6427 14.0315C16.5839 13.9667 16.4987 13.9314 16.412 13.9358C16.2387 13.9358 16.0757 13.8489 15.9772 13.7061C15.892 13.5824 15.7304 13.5412 15.5968 13.6104C15.5219 13.6487 15.4396 13.6693 15.3544 13.6693C15.1899 13.6693 15.0371 13.5942 14.9357 13.4632C14.8799 13.391 14.7932 13.3483 14.7022 13.3483C14.6111 13.3483 14.5244 13.391 14.4686 13.4632C14.3672 13.5942 14.2145 13.6693 14.0499 13.6693C13.9647 13.6693 13.884 13.6502 13.8076 13.6104C13.6754 13.5427 13.5123 13.5824 13.4271 13.7061C13.3287 13.8489 13.1671 13.9358 12.9923 13.9373C12.9056 13.9329 12.8204 13.9682 12.7617 14.033C12.7 14.1007 12.6721 14.1935 12.6882 14.2833C12.6926 14.3127 12.6956 14.3422 12.6956 14.3731C12.6956 14.6661 12.4576 14.9047 12.1653 14.9047C12.0169 14.9047 11.8788 14.8443 11.7775 14.7353C11.6952 14.6455 11.5659 14.6161 11.4513 14.6602C11.3382 14.7044 11.2633 14.8148 11.2633 14.9371V15.0563C11.2369 15.0578 11.2104 15.0607 11.1855 15.0637L11.0356 14.8222Z" fill="#003059"/>
<path d="M28.6441 12.0732H22.1028C21.3551 12.0732 20.747 12.6828 20.747 13.4322V16.3005L18.8388 17.9688C18.7462 18.0498 18.7125 18.1808 18.7565 18.2971C18.8006 18.4135 18.9108 18.49 19.0342 18.49H28.6441C29.3918 18.49 30 17.8804 30 17.131V13.4337C30 12.6842 29.3918 12.0747 28.6441 12.0747V12.0732ZM29.4065 17.1295C29.4065 17.5506 29.0643 17.8937 28.6441 17.8937H19.8259L21.2391 16.6583C21.3037 16.6024 21.3404 16.5199 21.3404 16.4345V13.4322C21.3404 13.0111 21.6827 12.668 22.1028 12.668H28.6441C29.0643 12.668 29.4065 13.0111 29.4065 13.4322V17.1295Z" fill="#003059"/>
<path d="M27.4881 14.0683H28.5575C28.722 14.0683 28.8542 13.9358 28.8542 13.7709C28.8542 13.606 28.722 13.4735 28.5575 13.4735H27.4881C27.3235 13.4735 27.1913 13.606 27.1913 13.7709C27.1913 13.9358 27.3235 14.0683 27.4881 14.0683Z" fill="#003059"/>
<path d="M22.2688 14.0683H26.3026C26.4671 14.0683 26.5993 13.9358 26.5993 13.7709C26.5993 13.606 26.4671 13.4735 26.3026 13.4735H22.2688C22.1043 13.4735 21.9721 13.606 21.9721 13.7709C21.9721 13.9358 22.1043 14.0683 22.2688 14.0683Z" fill="#003059"/>
<path d="M28.5575 14.9606H22.2688C22.1043 14.9606 21.9721 15.0931 21.9721 15.258C21.9721 15.423 22.1043 15.5555 22.2688 15.5555H28.5575C28.722 15.5555 28.8542 15.423 28.8542 15.258C28.8542 15.0931 28.722 14.9606 28.5575 14.9606Z" fill="#003059"/>
<path d="M28.5575 16.4478H22.2688C22.1043 16.4478 21.9721 16.5803 21.9721 16.7452C21.9721 16.9101 22.1043 17.0426 22.2688 17.0426H28.5575C28.722 17.0426 28.8542 16.9101 28.8542 16.7452C28.8542 16.5803 28.722 16.4478 28.5575 16.4478Z" fill="#003059"/>
<path d="M21.1612 28.0888L19.253 26.4205V23.5522C19.253 22.8028 18.6449 22.1932 17.8972 22.1932H11.3559C10.6082 22.1932 10 22.8028 10 23.5522V27.2495C10 27.999 10.6082 28.6086 11.3559 28.6086H11.5498C11.7143 28.6086 11.8465 28.476 11.8465 28.3111C11.8465 28.1462 11.7143 28.0137 11.5498 28.0137H11.3559C10.9357 28.0137 10.5935 27.6706 10.5935 27.2495V23.5522C10.5935 23.1311 10.9357 22.788 11.3559 22.788H17.8972C18.3173 22.788 18.6596 23.1311 18.6596 23.5522V26.5545C18.6596 26.6399 18.6963 26.7224 18.7609 26.7783L20.1741 28.0137H12.7367C12.5722 28.0137 12.44 28.1462 12.44 28.3111C12.44 28.476 12.5722 28.6086 12.7367 28.6086H20.9658C21.0892 28.6086 21.2009 28.532 21.2435 28.4157C21.2861 28.2993 21.2538 28.1683 21.1612 28.0873V28.0888Z" fill="#003059"/>
<path d="M11.4425 24.1913H17.7312C17.8957 24.1913 18.0279 24.0588 18.0279 23.8938C18.0279 23.7289 17.8957 23.5964 17.7312 23.5964H11.4425C11.278 23.5964 11.1458 23.7289 11.1458 23.8938C11.1458 24.0588 11.278 24.1913 11.4425 24.1913Z" fill="#003059"/>
<path d="M11.4425 25.6769H17.7312C17.8957 25.6769 18.0279 25.5444 18.0279 25.3795C18.0279 25.2146 17.8957 25.0821 17.7312 25.0821H11.4425C11.278 25.0821 11.1458 25.2146 11.1458 25.3795C11.1458 25.5444 11.278 25.6769 11.4425 25.6769Z" fill="#003059"/>
<path d="M11.4425 27.1641H17.7312C17.8957 27.1641 18.0279 27.0316 18.0279 26.8667C18.0279 26.7018 17.8957 26.5692 17.7312 26.5692H11.4425C11.278 26.5692 11.1458 26.7018 11.1458 26.8667C11.1458 27.0316 11.278 27.1641 11.4425 27.1641Z" fill="#003059"/>
</svg>
