<?xml version="1.0" encoding="UTF-8"?>
<svg xmlns="http://www.w3.org/2000/svg" width="140" height="44" viewBox="0 0 140 44" fill="none">
  <path d="M7.03229 41.9818C8.4239 42.4575 9.88973 42.714 11.4669 42.714C18.1355 42.714 22.7891 37.8709 22.7891 28.6606V1.21169L25.3162 0V29.1363C25.3162 38.5325 20.4808 44 13.6267 44C11.2442 44 9.01023 43.2678 7.03229 41.9818ZM4.14144 39.1941C5.68149 39.707 7.21783 40.0378 8.57605 40.0378C14.1796 40.0378 17.9203 36.5143 17.9203 28.5528V3.30427L20.4103 2.12975V28.7721C20.4103 37.1015 16.1984 41.361 10.335 41.361C8.17155 41.361 5.97466 40.5545 4.14144 39.1941ZM2.38244 36.6964C3.73695 37.0978 4.98383 37.358 6.08228 37.358C10.4427 37.358 13.1183 34.9718 13.1183 28.6978V5.43031L15.5749 4.25579V28.3298C15.5749 35.3769 12.3501 38.5697 7.73366 38.5697C5.79282 38.5697 3.9596 37.9081 2.38244 36.6964ZM10.8063 29.3594V6.38554L0 11.2658V29.9094C0 33.4702 2.234 35.8527 5.53305 35.8527C8.83211 35.8527 10.8101 33.4293 10.8101 29.3556" fill="#293682"></path>
  <path d="M39.2324 6.34465V14.9083C39.2324 18.0713 41.099 20.543 44.6726 20.543C47.7379 20.543 50.0424 18.2794 50.0424 14.8414V6.57881C50.0424 5.67934 50.6436 4.93969 51.6567 4.86907L51.9795 4.84676V4.04021H46.6098V4.84676L46.9549 4.86907C47.9457 4.93969 48.5692 5.65332 48.5692 6.57881V14.5886C48.5692 17.1978 47.2109 18.7886 45.0883 18.7886C42.9656 18.7886 41.6779 17.1049 41.6779 14.5626V6.34465C41.6779 5.44518 42.1603 4.93597 43.1771 4.86907L43.5 4.84676V4.04021H37.3917V4.84676L37.7368 4.86907C38.7277 4.93969 39.2361 5.42288 39.2361 6.34465" fill="#293682"></path>
  <path d="M46.4836 24.6167L46.8287 24.639C47.6822 24.6873 48.3279 25.0329 48.3279 26.003V31.0356H42.2902V26.003C42.2902 25.0329 42.9359 24.7096 43.7894 24.639L44.1123 24.6167V23.8101H38.004V24.6167L38.3491 24.639C39.2027 24.6873 39.8484 25.0329 39.8484 26.003V37.778C39.8484 38.7481 39.2027 39.0938 38.3491 39.1384L38.004 39.1607V39.9672H44.1123V39.1607L43.7894 39.1384C42.9359 39.0677 42.2902 38.7481 42.2902 37.778V32.2845H48.3279V37.778C48.3279 38.7481 47.6822 39.0938 46.8287 39.1384L46.4836 39.1607V39.9672H52.5918V39.1607L52.269 39.1384C51.4155 39.0677 50.7698 38.7481 50.7698 37.778V26.003C50.7698 25.0329 51.4155 24.7096 52.269 24.639L52.5918 24.6167V23.8101H46.4836" fill="#293682"></path>
  <path d="M51.9573 8.77175V9.5337L52.4174 9.55601C53.1299 9.60432 53.5715 9.94999 53.5715 10.9201V18.0304C53.5715 19.0005 53.0854 19.3462 52.3024 19.3945L51.9573 19.4168V20.201H57.4198V19.4168L57.097 19.3945C56.3139 19.3462 55.8278 19.0005 55.8278 18.0304V14.2429C55.8761 11.4739 57.071 9.80875 58.4774 9.80875C59.561 9.80875 60.2735 10.5484 60.2735 11.9794V18.0267C60.2735 18.9968 59.7911 19.3425 59.0044 19.3908L58.6593 19.4131V20.1973H64.1218V19.4131L63.799 19.3908C63.016 19.3425 62.5298 18.9968 62.5298 18.0267V11.7229C62.5298 9.92397 61.4239 8.42237 59.2345 8.42237C57.6907 8.42237 56.3548 9.34415 55.8241 10.9833V8.46697" fill="#293682"></path>
  <path d="M83.4894 20.4278C85.8161 20.4278 87.1298 18.8332 87.6605 17.0343L86.6697 16.7555C86.2095 18.0007 85.4005 18.9708 83.79 18.9708C81.9233 18.9708 80.6542 17.1941 80.6542 14.3768H87.8238V13.7077C87.8238 10.7305 86.0722 8.32945 83.2593 8.32945C80.2423 8.32945 78.2346 11.2137 78.2346 14.3768C78.2346 17.5398 80.1718 20.4241 83.4894 20.4241M83.237 9.64893C84.5062 9.64893 85.3115 10.8272 85.4042 13.2505H80.7024C80.9325 11.013 81.8565 9.64893 83.237 9.64893Z" fill="#293682"></path>
  <path d="M72.1486 17.6141C72.1486 19.4131 73.2323 20.4315 74.9616 20.4315C76.5758 20.4315 77.6372 19.2533 78.1196 17.5695L77.2883 17.3391C76.9655 18.3092 76.4348 18.9076 75.6963 18.9076C74.7278 18.9076 74.4049 18.1902 74.4049 17.3614V9.88309H77.563V8.68255H74.4049V5.12924H73.2508C72.8129 7.80909 71.4547 8.77547 70.0223 9.07653V9.88309H72.1412" fill="#293682"></path>
  <path d="M67.3095 6.60112C68.0926 6.60112 68.7828 5.93208 68.7828 5.05491C68.7828 4.22233 68.0926 3.5533 67.3095 3.5533C66.5265 3.5533 65.8363 4.22233 65.8363 5.05491C65.8363 5.93208 66.5043 6.60112 67.3095 6.60112Z" fill="#293682"></path>
  <path d="M66.2482 10.9164V18.0267C66.2482 18.9968 65.7658 19.3425 64.9791 19.3908L64.6339 19.4131V20.1973H70.0965V19.4131L69.7736 19.3908C68.9906 19.3462 68.5045 18.9968 68.5045 18.0267V8.47069L64.5152 8.77175V9.5337L65.0904 9.55601C65.8029 9.57831 66.2445 9.94999 66.2445 10.9201" fill="#293682"></path>
  <path d="M93.6982 20.4278C95.2197 20.4278 96.3961 19.6435 96.9045 18.3055V20.1973H100.753V19.4131L100.43 19.3908C99.6469 19.3462 99.1608 18.9968 99.1608 18.0267V3.73915L95.242 4.08481V4.84676L95.7504 4.86907C96.4629 4.89137 96.9045 5.25933 96.9045 6.22943V10.3849C96.3961 9.0914 95.2197 8.32945 93.6982 8.32945C90.6775 8.32945 88.9742 11.2137 88.9742 14.3768C88.9742 17.5398 90.6775 20.4241 93.6982 20.4241M94.0916 9.64893C95.7987 9.64893 96.9045 11.4962 96.9045 14.3805C96.9045 17.2647 95.7987 19.112 94.0916 19.112C92.4773 19.112 91.416 17.287 91.416 14.3805C91.416 11.4739 92.4773 9.64893 94.0916 9.64893Z" fill="#293682"></path>
  <path d="M128.014 28.1477C126.678 28.1477 125.524 29.0248 125.019 30.5933V28.2406L121.145 28.5416V29.3036L121.605 29.3259C122.321 29.3742 122.759 29.7199 122.759 30.69V37.8003C122.759 38.7704 122.273 39.1161 121.49 39.1644L121.145 39.1867V39.9709H126.607V39.1867L126.284 39.1644C125.501 39.1161 125.015 38.7704 125.015 37.8003V33.9236C125.06 31.0394 126.307 29.2367 127.828 29.2367C128.173 29.2367 128.403 29.3296 128.589 29.5378C128.199 29.7459 127.943 30.1399 127.943 30.6231C127.943 31.2921 128.496 31.8459 129.164 31.8459C129.832 31.8459 130.385 31.2921 130.385 30.5079C130.385 29.0546 129.301 28.1514 128.01 28.1514" fill="#293682"></path>
  <path d="M135.436 28.1031C132.418 28.1031 130.411 30.9873 130.411 34.1504C130.411 37.3134 132.348 40.1977 135.666 40.1977C137.992 40.1977 139.306 38.6031 139.837 36.8042L138.846 36.5254C138.386 37.7706 137.577 38.7407 135.966 38.7407C134.1 38.7407 132.83 36.964 132.83 34.1466H140V33.4776C140 30.5004 138.248 28.0993 135.436 28.0993M132.875 33.0204C133.105 30.7829 134.029 29.4188 135.41 29.4188C136.679 29.4188 137.484 30.5971 137.577 33.0204" fill="#293682"></path>
  <path d="M119.185 38.053V32.028C119.185 29.5601 117.641 28.1031 115.036 28.1031C112.802 28.1031 110.817 29.5824 110.817 31.2661C110.817 31.9834 111.348 32.5373 112.038 32.5373C112.728 32.5373 113.259 31.9834 113.259 31.3144C113.259 30.8535 113.006 30.4372 112.635 30.2291C113.051 29.653 113.786 29.3073 114.687 29.3073C116.094 29.3073 116.947 30.3703 116.947 32.147V32.6785L113.537 34.0872C111.255 35.035 110.472 35.8638 110.472 37.3654C110.472 39.0975 111.715 40.2051 113.678 40.2051C115.151 40.2051 116.376 39.3056 116.929 37.9415V38.2872C116.929 39.4655 117.76 40.1791 119.141 40.1791C119.694 40.1791 120.131 40.1085 120.592 39.9709V39.1867C119.623 39.3019 119.185 38.9339 119.185 38.0568M116.925 35.4438C116.81 37.4769 115.797 38.8373 114.391 38.8373C113.378 38.8373 112.732 38.146 112.732 37.083C112.732 36.1389 113.24 35.3992 114.209 34.9829L116.951 33.7601" fill="#293682"></path>
  <path d="M86.8218 37.1053C86.499 38.0754 85.9683 38.6738 85.2298 38.6738C84.2612 38.6738 83.9384 37.9601 83.9384 37.1276V29.6455H87.0964V28.445H83.9384V24.888H82.7843C82.3464 27.5678 80.9882 28.5342 79.5557 28.8353V29.6418H81.6747V37.3766C81.6747 39.1793 82.7583 40.194 84.4876 40.194C86.1019 40.194 87.1632 39.0157 87.6457 37.332" fill="#293682"></path>
  <path d="M72.208 38.053V32.028C72.208 29.5601 70.6643 28.1031 68.0592 28.1031C65.8252 28.1031 63.8398 29.5824 63.8398 31.2661C63.8398 31.9834 64.3705 32.5373 65.0607 32.5373C65.7509 32.5373 66.2816 31.9834 66.2816 31.3144C66.2816 30.8535 66.0293 30.4372 65.6582 30.2291C66.0738 29.653 66.8086 29.3073 67.7103 29.3073C69.1168 29.3073 69.9703 30.3703 69.9703 32.147V32.6785L66.5599 34.0872C64.2777 35.035 63.4947 35.8638 63.4947 37.3654C63.4947 39.0975 64.7378 40.2051 66.7009 40.2051C68.1742 40.2051 69.3988 39.3056 69.9518 37.9415V38.2872C69.9518 39.4655 70.783 40.1791 72.1635 40.1791C72.7164 40.1791 73.1543 40.1085 73.6145 39.9709V39.1867C72.6459 39.3019 72.208 38.9339 72.208 38.0568M69.948 35.4438C69.833 37.4769 68.8199 38.8373 67.4135 38.8373C66.4004 38.8373 65.7547 38.146 65.7547 37.083C65.7547 36.1389 66.2631 35.3992 67.2316 34.9829L69.974 33.7601" fill="#293682"></path>
  <path d="M105.885 38.7444C104.018 38.7444 102.749 36.9677 102.749 34.1504C102.749 31.333 103.992 29.4634 105.863 29.4634C106.694 29.4634 107.336 29.7385 107.729 30.2477C107.384 30.4781 107.154 30.8721 107.154 31.3107C107.154 31.9797 107.707 32.5335 108.375 32.5335C109.043 32.5335 109.596 31.9797 109.596 31.1955C109.596 29.8091 108.212 28.1031 105.748 28.1031C102.311 28.1031 100.33 30.9873 100.33 34.1504C100.33 37.3134 102.267 40.1977 105.584 40.1977C107.867 40.1977 109.158 38.6738 109.663 36.9417L108.672 36.6406C108.234 37.8189 107.451 38.7407 105.885 38.7407" fill="#293682"></path>
  <path d="M78.038 37.8003V23.509L74.1192 23.8547V24.6167L74.6276 24.639C75.3438 24.6613 75.7817 25.0329 75.7817 26.003V37.8003C75.7817 38.7704 75.2993 39.1161 74.5125 39.1644L74.1674 39.1867V39.9709H79.63V39.1867L79.3071 39.1644C78.5241 39.1161 78.038 38.7704 78.038 37.8003Z" fill="#293682"></path>
  <path d="M98.233 37.8003V31.4965C98.233 29.6976 97.1272 28.196 94.9377 28.196C93.3939 28.196 92.058 29.1178 91.5273 30.7569V23.509L87.6085 23.8547V24.6167L88.1169 24.639C88.8295 24.6613 89.2711 25.0329 89.2711 26.003V37.8003C89.2711 38.7704 88.7886 39.1161 88.0019 39.1644L87.6568 39.1867V39.9709H93.1193V39.1867L92.7965 39.1644C92.0135 39.1161 91.5273 38.7704 91.5273 37.8003V34.0128C91.5719 31.2438 92.7742 29.5786 94.177 29.5786C95.2606 29.5786 95.9731 30.3183 95.9731 31.7493V37.7966C95.9731 38.7667 95.4906 39.1123 94.7039 39.1607L94.3588 39.183V39.9672H99.8213V39.183L99.4985 39.1607C98.7155 39.1123 98.2293 38.7667 98.2293 37.7966" fill="#293682"></path>
  <path d="M58.0544 28.1031C55.0337 28.1031 53.0297 30.9873 53.0297 34.1504C53.0297 37.3134 54.9669 40.1977 58.2845 40.1977C60.6112 40.1977 61.9249 38.6031 62.4556 36.8042L61.4648 36.5254C61.0046 37.7706 60.1956 38.7407 58.5851 38.7407C56.7184 38.7407 55.4493 36.964 55.4493 34.1466H62.6189V33.4776C62.6189 30.5004 60.8673 28.0993 58.0544 28.0993M55.4975 33.0204C55.7276 30.7829 56.6516 29.4188 58.0321 29.4188C59.3013 29.4188 60.1066 30.5971 60.1993 33.0204" fill="#293682"></path>
  <path d="M7.03229 41.9818C8.4239 42.4575 9.88973 42.714 11.4669 42.714C18.1355 42.714 22.7891 37.8709 22.7891 28.6606V1.21169L25.3162 0V29.1363C25.3162 38.5325 20.4808 44 13.6267 44C11.2442 44 9.01023 43.2678 7.03229 41.9818ZM4.14144 39.1941C5.68149 39.707 7.21783 40.0378 8.57605 40.0378C14.1796 40.0378 17.9203 36.5143 17.9203 28.5528V3.30427L20.4103 2.12975V28.7721C20.4103 37.1015 16.1984 41.361 10.335 41.361C8.17155 41.361 5.97466 40.5545 4.14144 39.1941ZM2.38244 36.6964C3.73695 37.0978 4.98383 37.358 6.08228 37.358C10.4427 37.358 13.1183 34.9718 13.1183 28.6978V5.43031L15.5749 4.25579V28.3298C15.5749 35.3769 12.3501 38.5697 7.73366 38.5697C5.79282 38.5697 3.9596 37.9081 2.38244 36.6964ZM10.8063 29.3594V6.38554L0 11.2658V29.9094C0 33.4702 2.234 35.8527 5.53305 35.8527C8.83211 35.8527 10.8101 33.4293 10.8101 29.3556" fill="#293682"></path>
  <path d="M39.2324 6.34465V14.9083C39.2324 18.0713 41.099 20.543 44.6726 20.543C47.7379 20.543 50.0424 18.2794 50.0424 14.8414V6.57881C50.0424 5.67934 50.6436 4.93969 51.6567 4.86907L51.9795 4.84676V4.04021H46.6098V4.84676L46.9549 4.86907C47.9457 4.93969 48.5692 5.65332 48.5692 6.57881V14.5886C48.5692 17.1978 47.2109 18.7886 45.0883 18.7886C42.9656 18.7886 41.6779 17.1049 41.6779 14.5626V6.34465C41.6779 5.44518 42.1603 4.93597 43.1771 4.86907L43.5 4.84676V4.04021H37.3917V4.84676L37.7368 4.86907C38.7277 4.93969 39.2361 5.42288 39.2361 6.34465" fill="#293682"></path>
  <path d="M46.4836 24.6167L46.8287 24.639C47.6822 24.6873 48.3279 25.0329 48.3279 26.003V31.0356H42.2902V26.003C42.2902 25.0329 42.9359 24.7096 43.7894 24.639L44.1123 24.6167V23.8101H38.004V24.6167L38.3491 24.639C39.2027 24.6873 39.8484 25.0329 39.8484 26.003V37.778C39.8484 38.7481 39.2027 39.0938 38.3491 39.1384L38.004 39.1607V39.9672H44.1123V39.1607L43.7894 39.1384C42.9359 39.0677 42.2902 38.7481 42.2902 37.778V32.2845H48.3279V37.778C48.3279 38.7481 47.6822 39.0938 46.8287 39.1384L46.4836 39.1607V39.9672H52.5918V39.1607L52.269 39.1384C51.4155 39.0677 50.7698 38.7481 50.7698 37.778V26.003C50.7698 25.0329 51.4155 24.7096 52.269 24.639L52.5918 24.6167V23.8101H46.4836" fill="#293682"></path>
  <path d="M51.9573 8.77175V9.5337L52.4174 9.55601C53.1299 9.60432 53.5715 9.94999 53.5715 10.9201V18.0304C53.5715 19.0005 53.0854 19.3462 52.3024 19.3945L51.9573 19.4168V20.201H57.4198V19.4168L57.097 19.3945C56.3139 19.3462 55.8278 19.0005 55.8278 18.0304V14.2429C55.8761 11.4739 57.071 9.80875 58.4774 9.80875C59.561 9.80875 60.2735 10.5484 60.2735 11.9794V18.0267C60.2735 18.9968 59.7911 19.3425 59.0044 19.3908L58.6593 19.4131V20.1973H64.1218V19.4131L63.799 19.3908C63.016 19.3425 62.5298 18.9968 62.5298 18.0267V11.7229C62.5298 9.92397 61.4239 8.42237 59.2345 8.42237C57.6907 8.42237 56.3548 9.34415 55.8241 10.9833V8.46697" fill="#293682"></path>
  <path d="M83.4894 20.4278C85.8161 20.4278 87.1298 18.8332 87.6605 17.0343L86.6697 16.7555C86.2095 18.0007 85.4005 18.9708 83.79 18.9708C81.9233 18.9708 80.6542 17.1941 80.6542 14.3768H87.8238V13.7077C87.8238 10.7305 86.0722 8.32945 83.2593 8.32945C80.2423 8.32945 78.2346 11.2137 78.2346 14.3768C78.2346 17.5398 80.1718 20.4241 83.4894 20.4241M83.237 9.64893C84.5062 9.64893 85.3115 10.8272 85.4042 13.2505H80.7024C80.9325 11.013 81.8565 9.64893 83.237 9.64893Z" fill="#293682"></path>
  <path d="M72.1486 17.6141C72.1486 19.4131 73.2323 20.4315 74.9616 20.4315C76.5758 20.4315 77.6372 19.2533 78.1196 17.5695L77.2883 17.3391C76.9655 18.3092 76.4348 18.9076 75.6963 18.9076C74.7278 18.9076 74.4049 18.1902 74.4049 17.3614V9.88309H77.563V8.68255H74.4049V5.12924H73.2508C72.8129 7.80909 71.4547 8.77547 70.0223 9.07653V9.88309H72.1412" fill="#293682"></path>
  <path d="M67.3095 6.60112C68.0926 6.60112 68.7828 5.93208 68.7828 5.05491C68.7828 4.22233 68.0926 3.5533 67.3095 3.5533C66.5265 3.5533 65.8363 4.22233 65.8363 5.05491C65.8363 5.93208 66.5043 6.60112 67.3095 6.60112Z" fill="#293682"></path>
  <path d="M66.2482 10.9164V18.0267C66.2482 18.9968 65.7658 19.3425 64.9791 19.3908L64.6339 19.4131V20.1973H70.0965V19.4131L69.7736 19.3908C68.9906 19.3462 68.5045 18.9968 68.5045 18.0267V8.47069L64.5152 8.77175V9.5337L65.0904 9.55601C65.8029 9.57831 66.2445 9.94999 66.2445 10.9201" fill="#293682"></path>
  <path d="M93.6982 20.4278C95.2197 20.4278 96.3961 19.6435 96.9045 18.3055V20.1973H100.753V19.4131L100.43 19.3908C99.6469 19.3462 99.1608 18.9968 99.1608 18.0267V3.73915L95.242 4.08481V4.84676L95.7504 4.86907C96.4629 4.89137 96.9045 5.25933 96.9045 6.22943V10.3849C96.3961 9.0914 95.2197 8.32945 93.6982 8.32945C90.6775 8.32945 88.9742 11.2137 88.9742 14.3768C88.9742 17.5398 90.6775 20.4241 93.6982 20.4241M94.0916 9.64893C95.7987 9.64893 96.9045 11.4962 96.9045 14.3805C96.9045 17.2647 95.7987 19.112 94.0916 19.112C92.4773 19.112 91.416 17.287 91.416 14.3805C91.416 11.4739 92.4773 9.64893 94.0916 9.64893Z" fill="#293682"></path>
  <path d="M128.014 28.1477C126.678 28.1477 125.524 29.0248 125.019 30.5933V28.2406L121.145 28.5416V29.3036L121.605 29.3259C122.321 29.3742 122.759 29.7199 122.759 30.69V37.8003C122.759 38.7704 122.273 39.1161 121.49 39.1644L121.145 39.1867V39.9709H126.607V39.1867L126.284 39.1644C125.501 39.1161 125.015 38.7704 125.015 37.8003V33.9236C125.06 31.0394 126.307 29.2367 127.828 29.2367C128.173 29.2367 128.403 29.3296 128.589 29.5378C128.199 29.7459 127.943 30.1399 127.943 30.6231C127.943 31.2921 128.496 31.8459 129.164 31.8459C129.832 31.8459 130.385 31.2921 130.385 30.5079C130.385 29.0546 129.301 28.1514 128.01 28.1514" fill="#293682"></path>
  <path d="M135.436 28.1031C132.418 28.1031 130.411 30.9873 130.411 34.1504C130.411 37.3134 132.348 40.1977 135.666 40.1977C137.992 40.1977 139.306 38.6031 139.837 36.8042L138.846 36.5254C138.386 37.7706 137.577 38.7407 135.966 38.7407C134.1 38.7407 132.83 36.964 132.83 34.1466H140V33.4776C140 30.5004 138.248 28.0993 135.436 28.0993M132.875 33.0204C133.105 30.7829 134.029 29.4188 135.41 29.4188C136.679 29.4188 137.484 30.5971 137.577 33.0204" fill="#293682"></path>
  <path d="M119.185 38.053V32.028C119.185 29.5601 117.641 28.1031 115.036 28.1031C112.802 28.1031 110.817 29.5824 110.817 31.2661C110.817 31.9834 111.348 32.5373 112.038 32.5373C112.728 32.5373 113.259 31.9834 113.259 31.3144C113.259 30.8535 113.006 30.4372 112.635 30.2291C113.051 29.653 113.786 29.3073 114.687 29.3073C116.094 29.3073 116.947 30.3703 116.947 32.147V32.6785L113.537 34.0872C111.255 35.035 110.472 35.8638 110.472 37.3654C110.472 39.0975 111.715 40.2051 113.678 40.2051C115.151 40.2051 116.376 39.3056 116.929 37.9415V38.2872C116.929 39.4655 117.76 40.1791 119.141 40.1791C119.694 40.1791 120.131 40.1085 120.592 39.9709V39.1867C119.623 39.3019 119.185 38.9339 119.185 38.0568M116.925 35.4438C116.81 37.4769 115.797 38.8373 114.391 38.8373C113.378 38.8373 112.732 38.146 112.732 37.083C112.732 36.1389 113.24 35.3992 114.209 34.9829L116.951 33.7601" fill="#293682"></path>
  <path d="M86.8218 37.1053C86.499 38.0754 85.9683 38.6738 85.2298 38.6738C84.2612 38.6738 83.9384 37.9601 83.9384 37.1276V29.6455H87.0964V28.445H83.9384V24.888H82.7843C82.3464 27.5678 80.9882 28.5342 79.5557 28.8353V29.6418H81.6747V37.3766C81.6747 39.1793 82.7583 40.194 84.4876 40.194C86.1019 40.194 87.1632 39.0157 87.6457 37.332" fill="#293682"></path>
  <path d="M72.208 38.053V32.028C72.208 29.5601 70.6643 28.1031 68.0592 28.1031C65.8252 28.1031 63.8398 29.5824 63.8398 31.2661C63.8398 31.9834 64.3705 32.5373 65.0607 32.5373C65.7509 32.5373 66.2816 31.9834 66.2816 31.3144C66.2816 30.8535 66.0293 30.4372 65.6582 30.2291C66.0738 29.653 66.8086 29.3073 67.7103 29.3073C69.1168 29.3073 69.9703 30.3703 69.9703 32.147V32.6785L66.5599 34.0872C64.2777 35.035 63.4947 35.8638 63.4947 37.3654C63.4947 39.0975 64.7378 40.2051 66.7009 40.2051C68.1742 40.2051 69.3988 39.3056 69.9518 37.9415V38.2872C69.9518 39.4655 70.783 40.1791 72.1635 40.1791C72.7164 40.1791 73.1543 40.1085 73.6145 39.9709V39.1867C72.6459 39.3019 72.208 38.9339 72.208 38.0568M69.948 35.4438C69.833 37.4769 68.8199 38.8373 67.4135 38.8373C66.4004 38.8373 65.7547 38.146 65.7547 37.083C65.7547 36.1389 66.2631 35.3992 67.2316 34.9829L69.974 33.7601" fill="#293682"></path>
  <path d="M105.885 38.7444C104.018 38.7444 102.749 36.9677 102.749 34.1504C102.749 31.333 103.992 29.4634 105.863 29.4634C106.694 29.4634 107.336 29.7385 107.729 30.2477C107.384 30.4781 107.154 30.8721 107.154 31.3107C107.154 31.9797 107.707 32.5335 108.375 32.5335C109.043 32.5335 109.596 31.9797 109.596 31.1955C109.596 29.8091 108.212 28.1031 105.748 28.1031C102.311 28.1031 100.33 30.9873 100.33 34.1504C100.33 37.3134 102.267 40.1977 105.584 40.1977C107.867 40.1977 109.158 38.6738 109.663 36.9417L108.672 36.6406C108.234 37.8189 107.451 38.7407 105.885 38.7407" fill="#293682"></path>
  <path d="M78.038 37.8003V23.509L74.1192 23.8547V24.6167L74.6276 24.639C75.3438 24.6613 75.7817 25.0329 75.7817 26.003V37.8003C75.7817 38.7704 75.2993 39.1161 74.5125 39.1644L74.1674 39.1867V39.9709H79.63V39.1867L79.3071 39.1644C78.5241 39.1161 78.038 38.7704 78.038 37.8003Z" fill="#293682"></path>
  <path d="M98.233 37.8003V31.4965C98.233 29.6976 97.1272 28.196 94.9377 28.196C93.3939 28.196 92.058 29.1178 91.5273 30.7569V23.509L87.6085 23.8547V24.6167L88.1169 24.639C88.8295 24.6613 89.2711 25.0329 89.2711 26.003V37.8003C89.2711 38.7704 88.7886 39.1161 88.0019 39.1644L87.6568 39.1867V39.9709H93.1193V39.1867L92.7965 39.1644C92.0135 39.1161 91.5273 38.7704 91.5273 37.8003V34.0128C91.5719 31.2438 92.7742 29.5786 94.177 29.5786C95.2606 29.5786 95.9731 30.3183 95.9731 31.7493V37.7966C95.9731 38.7667 95.4906 39.1123 94.7039 39.1607L94.3588 39.183V39.9672H99.8213V39.183L99.4985 39.1607C98.7155 39.1123 98.2293 38.7667 98.2293 37.7966" fill="#293682"></path>
  <path d="M58.0544 28.1031C55.0337 28.1031 53.0297 30.9873 53.0297 34.1504C53.0297 37.3134 54.9669 40.1977 58.2845 40.1977C60.6112 40.1977 61.9249 38.6031 62.4556 36.8042L61.4648 36.5254C61.0046 37.7706 60.1956 38.7407 58.5851 38.7407C56.7184 38.7407 55.4493 36.964 55.4493 34.1466H62.6189V33.4776C62.6189 30.5004 60.8673 28.0993 58.0544 28.0993M55.4975 33.0204C55.7276 30.7829 56.6516 29.4188 58.0321 29.4188C59.3013 29.4188 60.1066 30.5971 60.1993 33.0204" fill="#293682"></path>
  <path d="M7.03229 41.9818C8.4239 42.4575 9.88973 42.714 11.4669 42.714C18.1355 42.714 22.7891 37.8709 22.7891 28.6606V1.21169L25.3162 0V29.1363C25.3162 38.5325 20.4808 44 13.6267 44C11.2442 44 9.01023 43.2678 7.03229 41.9818ZM4.14144 39.1941C5.68149 39.707 7.21783 40.0378 8.57605 40.0378C14.1796 40.0378 17.9203 36.5143 17.9203 28.5528V3.30427L20.4103 2.12975V28.7721C20.4103 37.1015 16.1984 41.361 10.335 41.361C8.17155 41.361 5.97466 40.5545 4.14144 39.1941ZM2.38244 36.6964C3.73695 37.0978 4.98383 37.358 6.08228 37.358C10.4427 37.358 13.1183 34.9718 13.1183 28.6978V5.43031L15.5749 4.25579V28.3298C15.5749 35.3769 12.3501 38.5697 7.73366 38.5697C5.79282 38.5697 3.9596 37.9081 2.38244 36.6964ZM10.8063 29.3594V6.38554L0 11.2658V29.9094C0 33.4702 2.234 35.8527 5.53305 35.8527C8.83211 35.8527 10.8101 33.4293 10.8101 29.3556" fill="#293682"></path>
  <path d="M39.2324 6.34465V14.9083C39.2324 18.0713 41.099 20.543 44.6726 20.543C47.7379 20.543 50.0424 18.2794 50.0424 14.8414V6.57881C50.0424 5.67934 50.6436 4.93969 51.6567 4.86907L51.9795 4.84676V4.04021H46.6098V4.84676L46.9549 4.86907C47.9457 4.93969 48.5692 5.65332 48.5692 6.57881V14.5886C48.5692 17.1978 47.2109 18.7886 45.0883 18.7886C42.9656 18.7886 41.6779 17.1049 41.6779 14.5626V6.34465C41.6779 5.44518 42.1603 4.93597 43.1771 4.86907L43.5 4.84676V4.04021H37.3917V4.84676L37.7368 4.86907C38.7277 4.93969 39.2361 5.42288 39.2361 6.34465" fill="#293682"></path>
  <path d="M46.4836 24.6167L46.8287 24.639C47.6822 24.6873 48.3279 25.0329 48.3279 26.003V31.0356H42.2902V26.003C42.2902 25.0329 42.9359 24.7096 43.7894 24.639L44.1123 24.6167V23.8101H38.004V24.6167L38.3491 24.639C39.2027 24.6873 39.8484 25.0329 39.8484 26.003V37.778C39.8484 38.7481 39.2027 39.0938 38.3491 39.1384L38.004 39.1607V39.9672H44.1123V39.1607L43.7894 39.1384C42.9359 39.0677 42.2902 38.7481 42.2902 37.778V32.2845H48.3279V37.778C48.3279 38.7481 47.6822 39.0938 46.8287 39.1384L46.4836 39.1607V39.9672H52.5918V39.1607L52.269 39.1384C51.4155 39.0677 50.7698 38.7481 50.7698 37.778V26.003C50.7698 25.0329 51.4155 24.7096 52.269 24.639L52.5918 24.6167V23.8101H46.4836" fill="#293682"></path>
  <path d="M51.9573 8.77175V9.5337L52.4174 9.55601C53.1299 9.60432 53.5715 9.94999 53.5715 10.9201V18.0304C53.5715 19.0005 53.0854 19.3462 52.3024 19.3945L51.9573 19.4168V20.201H57.4198V19.4168L57.097 19.3945C56.3139 19.3462 55.8278 19.0005 55.8278 18.0304V14.2429C55.8761 11.4739 57.071 9.80875 58.4774 9.80875C59.561 9.80875 60.2735 10.5484 60.2735 11.9794V18.0267C60.2735 18.9968 59.7911 19.3425 59.0044 19.3908L58.6593 19.4131V20.1973H64.1218V19.4131L63.799 19.3908C63.016 19.3425 62.5298 18.9968 62.5298 18.0267V11.7229C62.5298 9.92397 61.4239 8.42237 59.2345 8.42237C57.6907 8.42237 56.3548 9.34415 55.8241 10.9833V8.46697" fill="#293682"></path>
  <path d="M83.4894 20.4278C85.8161 20.4278 87.1298 18.8332 87.6605 17.0343L86.6697 16.7555C86.2095 18.0007 85.4005 18.9708 83.79 18.9708C81.9233 18.9708 80.6542 17.1941 80.6542 14.3768H87.8238V13.7077C87.8238 10.7305 86.0722 8.32945 83.2593 8.32945C80.2423 8.32945 78.2346 11.2137 78.2346 14.3768C78.2346 17.5398 80.1718 20.4241 83.4894 20.4241M83.237 9.64893C84.5062 9.64893 85.3115 10.8272 85.4042 13.2505H80.7024C80.9325 11.013 81.8565 9.64893 83.237 9.64893Z" fill="#293682"></path>
  <path d="M72.1486 17.6141C72.1486 19.4131 73.2323 20.4315 74.9616 20.4315C76.5758 20.4315 77.6372 19.2533 78.1196 17.5695L77.2883 17.3391C76.9655 18.3092 76.4348 18.9076 75.6963 18.9076C74.7278 18.9076 74.4049 18.1902 74.4049 17.3614V9.88309H77.563V8.68255H74.4049V5.12924H73.2508C72.8129 7.80909 71.4547 8.77547 70.0223 9.07653V9.88309H72.1412" fill="#293682"></path>
  <path d="M67.3095 6.60112C68.0926 6.60112 68.7828 5.93208 68.7828 5.05491C68.7828 4.22233 68.0926 3.5533 67.3095 3.5533C66.5265 3.5533 65.8363 4.22233 65.8363 5.05491C65.8363 5.93208 66.5043 6.60112 67.3095 6.60112Z" fill="#293682"></path>
  <path d="M66.2482 10.9164V18.0267C66.2482 18.9968 65.7658 19.3425 64.9791 19.3908L64.6339 19.4131V20.1973H70.0965V19.4131L69.7736 19.3908C68.9906 19.3462 68.5045 18.9968 68.5045 18.0267V8.47069L64.5152 8.77175V9.5337L65.0904 9.55601C65.8029 9.57831 66.2445 9.94999 66.2445 10.9201" fill="#293682"></path>
  <path d="M93.6982 20.4278C95.2197 20.4278 96.3961 19.6435 96.9045 18.3055V20.1973H100.753V19.4131L100.43 19.3908C99.6469 19.3462 99.1608 18.9968 99.1608 18.0267V3.73915L95.242 4.08481V4.84676L95.7504 4.86907C96.4629 4.89137 96.9045 5.25933 96.9045 6.22943V10.3849C96.3961 9.0914 95.2197 8.32945 93.6982 8.32945C90.6775 8.32945 88.9742 11.2137 88.9742 14.3768C88.9742 17.5398 90.6775 20.4241 93.6982 20.4241M94.0916 9.64893C95.7987 9.64893 96.9045 11.4962 96.9045 14.3805C96.9045 17.2647 95.7987 19.112 94.0916 19.112C92.4773 19.112 91.416 17.287 91.416 14.3805C91.416 11.4739 92.4773 9.64893 94.0916 9.64893Z" fill="#293682"></path>
  <path d="M128.014 28.1477C126.678 28.1477 125.524 29.0248 125.019 30.5933V28.2406L121.145 28.5416V29.3036L121.605 29.3259C122.321 29.3742 122.759 29.7199 122.759 30.69V37.8003C122.759 38.7704 122.273 39.1161 121.49 39.1644L121.145 39.1867V39.9709H126.607V39.1867L126.284 39.1644C125.501 39.1161 125.015 38.7704 125.015 37.8003V33.9236C125.06 31.0394 126.307 29.2367 127.828 29.2367C128.173 29.2367 128.403 29.3296 128.589 29.5378C128.199 29.7459 127.943 30.1399 127.943 30.6231C127.943 31.2921 128.496 31.8459 129.164 31.8459C129.832 31.8459 130.385 31.2921 130.385 30.5079C130.385 29.0546 129.301 28.1514 128.01 28.1514" fill="#293682"></path>
  <path d="M135.436 28.1031C132.418 28.1031 130.411 30.9873 130.411 34.1504C130.411 37.3134 132.348 40.1977 135.666 40.1977C137.992 40.1977 139.306 38.6031 139.837 36.8042L138.846 36.5254C138.386 37.7706 137.577 38.7407 135.966 38.7407C134.1 38.7407 132.83 36.964 132.83 34.1466H140V33.4776C140 30.5004 138.248 28.0993 135.436 28.0993M132.875 33.0204C133.105 30.7829 134.029 29.4188 135.41 29.4188C136.679 29.4188 137.484 30.5971 137.577 33.0204" fill="#293682"></path>
  <path d="M119.185 38.053V32.028C119.185 29.5601 117.641 28.1031 115.036 28.1031C112.802 28.1031 110.817 29.5824 110.817 31.2661C110.817 31.9834 111.348 32.5373 112.038 32.5373C112.728 32.5373 113.259 31.9834 113.259 31.3144C113.259 30.8535 113.006 30.4372 112.635 30.2291C113.051 29.653 113.786 29.3073 114.687 29.3073C116.094 29.3073 116.947 30.3703 116.947 32.147V32.6785L113.537 34.0872C111.255 35.035 110.472 35.8638 110.472 37.3654C110.472 39.0975 111.715 40.2051 113.678 40.2051C115.151 40.2051 116.376 39.3056 116.929 37.9415V38.2872C116.929 39.4655 117.76 40.1791 119.141 40.1791C119.694 40.1791 120.131 40.1085 120.592 39.9709V39.1867C119.623 39.3019 119.185 38.9339 119.185 38.0568M116.925 35.4438C116.81 37.4769 115.797 38.8373 114.391 38.8373C113.378 38.8373 112.732 38.146 112.732 37.083C112.732 36.1389 113.24 35.3992 114.209 34.9829L116.951 33.7601" fill="#293682"></path>
  <path d="M86.8218 37.1053C86.499 38.0754 85.9683 38.6738 85.2298 38.6738C84.2612 38.6738 83.9384 37.9601 83.9384 37.1276V29.6455H87.0964V28.445H83.9384V24.888H82.7843C82.3464 27.5678 80.9882 28.5342 79.5557 28.8353V29.6418H81.6747V37.3766C81.6747 39.1793 82.7583 40.194 84.4876 40.194C86.1019 40.194 87.1632 39.0157 87.6457 37.332" fill="#293682"></path>
  <path d="M72.208 38.053V32.028C72.208 29.5601 70.6643 28.1031 68.0592 28.1031C65.8252 28.1031 63.8398 29.5824 63.8398 31.2661C63.8398 31.9834 64.3705 32.5373 65.0607 32.5373C65.7509 32.5373 66.2816 31.9834 66.2816 31.3144C66.2816 30.8535 66.0293 30.4372 65.6582 30.2291C66.0738 29.653 66.8086 29.3073 67.7103 29.3073C69.1168 29.3073 69.9703 30.3703 69.9703 32.147V32.6785L66.5599 34.0872C64.2777 35.035 63.4947 35.8638 63.4947 37.3654C63.4947 39.0975 64.7378 40.2051 66.7009 40.2051C68.1742 40.2051 69.3988 39.3056 69.9518 37.9415V38.2872C69.9518 39.4655 70.783 40.1791 72.1635 40.1791C72.7164 40.1791 73.1543 40.1085 73.6145 39.9709V39.1867C72.6459 39.3019 72.208 38.9339 72.208 38.0568M69.948 35.4438C69.833 37.4769 68.8199 38.8373 67.4135 38.8373C66.4004 38.8373 65.7547 38.146 65.7547 37.083C65.7547 36.1389 66.2631 35.3992 67.2316 34.9829L69.974 33.7601" fill="#293682"></path>
  <path d="M105.885 38.7444C104.018 38.7444 102.749 36.9677 102.749 34.1504C102.749 31.333 103.992 29.4634 105.863 29.4634C106.694 29.4634 107.336 29.7385 107.729 30.2477C107.384 30.4781 107.154 30.8721 107.154 31.3107C107.154 31.9797 107.707 32.5335 108.375 32.5335C109.043 32.5335 109.596 31.9797 109.596 31.1955C109.596 29.8091 108.212 28.1031 105.748 28.1031C102.311 28.1031 100.33 30.9873 100.33 34.1504C100.33 37.3134 102.267 40.1977 105.584 40.1977C107.867 40.1977 109.158 38.6738 109.663 36.9417L108.672 36.6406C108.234 37.8189 107.451 38.7407 105.885 38.7407" fill="#293682"></path>
  <path d="M78.038 37.8003V23.509L74.1192 23.8547V24.6167L74.6276 24.639C75.3438 24.6613 75.7817 25.0329 75.7817 26.003V37.8003C75.7817 38.7704 75.2993 39.1161 74.5125 39.1644L74.1674 39.1867V39.9709H79.63V39.1867L79.3071 39.1644C78.5241 39.1161 78.038 38.7704 78.038 37.8003Z" fill="#293682"></path>
  <path d="M98.233 37.8003V31.4965C98.233 29.6976 97.1272 28.196 94.9377 28.196C93.3939 28.196 92.058 29.1178 91.5273 30.7569V23.509L87.6085 23.8547V24.6167L88.1169 24.639C88.8295 24.6613 89.2711 25.0329 89.2711 26.003V37.8003C89.2711 38.7704 88.7886 39.1161 88.0019 39.1644L87.6568 39.1867V39.9709H93.1193V39.1867L92.7965 39.1644C92.0135 39.1161 91.5273 38.7704 91.5273 37.8003V34.0128C91.5719 31.2438 92.7742 29.5786 94.177 29.5786C95.2606 29.5786 95.9731 30.3183 95.9731 31.7493V37.7966C95.9731 38.7667 95.4906 39.1123 94.7039 39.1607L94.3588 39.183V39.9672H99.8213V39.183L99.4985 39.1607C98.7155 39.1123 98.2293 38.7667 98.2293 37.7966" fill="#293682"></path>
  <path d="M58.0544 28.1031C55.0337 28.1031 53.0297 30.9873 53.0297 34.1504C53.0297 37.3134 54.9669 40.1977 58.2845 40.1977C60.6112 40.1977 61.9249 38.6031 62.4556 36.8042L61.4648 36.5254C61.0046 37.7706 60.1956 38.7407 58.5851 38.7407C56.7184 38.7407 55.4493 36.964 55.4493 34.1466H62.6189V33.4776C62.6189 30.5004 60.8673 28.0993 58.0544 28.0993M55.4975 33.0204C55.7276 30.7829 56.6516 29.4188 58.0321 29.4188C59.3013 29.4188 60.1066 30.5971 60.1993 33.0204" fill="#293682"></path>
  <path d="M7.03229 41.9818C8.4239 42.4575 9.88973 42.714 11.4669 42.714C18.1355 42.714 22.7891 37.8709 22.7891 28.6606V1.21169L25.3162 0V29.1363C25.3162 38.5325 20.4808 44 13.6267 44C11.2442 44 9.01023 43.2678 7.03229 41.9818ZM4.14144 39.1941C5.68149 39.707 7.21783 40.0378 8.57605 40.0378C14.1796 40.0378 17.9203 36.5143 17.9203 28.5528V3.30427L20.4103 2.12975V28.7721C20.4103 37.1015 16.1984 41.361 10.335 41.361C8.17155 41.361 5.97466 40.5545 4.14144 39.1941ZM2.38244 36.6964C3.73695 37.0978 4.98383 37.358 6.08228 37.358C10.4427 37.358 13.1183 34.9718 13.1183 28.6978V5.43031L15.5749 4.25579V28.3298C15.5749 35.3769 12.3501 38.5697 7.73366 38.5697C5.79282 38.5697 3.9596 37.9081 2.38244 36.6964ZM10.8063 29.3594V6.38554L0 11.2658V29.9094C0 33.4702 2.234 35.8527 5.53305 35.8527C8.83211 35.8527 10.8101 33.4293 10.8101 29.3556" fill="#293682"></path>
  <path d="M39.2324 6.34465V14.9083C39.2324 18.0713 41.099 20.543 44.6726 20.543C47.7379 20.543 50.0424 18.2794 50.0424 14.8414V6.57881C50.0424 5.67934 50.6436 4.93969 51.6567 4.86907L51.9795 4.84676V4.04021H46.6098V4.84676L46.9549 4.86907C47.9457 4.93969 48.5692 5.65332 48.5692 6.57881V14.5886C48.5692 17.1978 47.2109 18.7886 45.0883 18.7886C42.9656 18.7886 41.6779 17.1049 41.6779 14.5626V6.34465C41.6779 5.44518 42.1603 4.93597 43.1771 4.86907L43.5 4.84676V4.04021H37.3917V4.84676L37.7368 4.86907C38.7277 4.93969 39.2361 5.42288 39.2361 6.34465" fill="#293682"></path>
  <path d="M46.4836 24.6167L46.8287 24.639C47.6822 24.6873 48.3279 25.0329 48.3279 26.003V31.0356H42.2902V26.003C42.2902 25.0329 42.9359 24.7096 43.7894 24.639L44.1123 24.6167V23.8101H38.004V24.6167L38.3491 24.639C39.2027 24.6873 39.8484 25.0329 39.8484 26.003V37.778C39.8484 38.7481 39.2027 39.0938 38.3491 39.1384L38.004 39.1607V39.9672H44.1123V39.1607L43.7894 39.1384C42.9359 39.0677 42.2902 38.7481 42.2902 37.778V32.2845H48.3279V37.778C48.3279 38.7481 47.6822 39.0938 46.8287 39.1384L46.4836 39.1607V39.9672H52.5918V39.1607L52.269 39.1384C51.4155 39.0677 50.7698 38.7481 50.7698 37.778V26.003C50.7698 25.0329 51.4155 24.7096 52.269 24.639L52.5918 24.6167V23.8101H46.4836" fill="#293682"></path>
  <path d="M51.9573 8.77175V9.5337L52.4174 9.55601C53.1299 9.60432 53.5715 9.94999 53.5715 10.9201V18.0304C53.5715 19.0005 53.0854 19.3462 52.3024 19.3945L51.9573 19.4168V20.201H57.4198V19.4168L57.097 19.3945C56.3139 19.3462 55.8278 19.0005 55.8278 18.0304V14.2429C55.8761 11.4739 57.071 9.80875 58.4774 9.80875C59.561 9.80875 60.2735 10.5484 60.2735 11.9794V18.0267C60.2735 18.9968 59.7911 19.3425 59.0044 19.3908L58.6593 19.4131V20.1973H64.1218V19.4131L63.799 19.3908C63.016 19.3425 62.5298 18.9968 62.5298 18.0267V11.7229C62.5298 9.92397 61.4239 8.42237 59.2345 8.42237C57.6907 8.42237 56.3548 9.34415 55.8241 10.9833V8.46697" fill="#293682"></path>
  <path d="M83.4894 20.4278C85.8161 20.4278 87.1298 18.8332 87.6605 17.0343L86.6697 16.7555C86.2095 18.0007 85.4005 18.9708 83.79 18.9708C81.9233 18.9708 80.6542 17.1941 80.6542 14.3768H87.8238V13.7077C87.8238 10.7305 86.0722 8.32945 83.2593 8.32945C80.2423 8.32945 78.2346 11.2137 78.2346 14.3768C78.2346 17.5398 80.1718 20.4241 83.4894 20.4241M83.237 9.64893C84.5062 9.64893 85.3115 10.8272 85.4042 13.2505H80.7024C80.9325 11.013 81.8565 9.64893 83.237 9.64893Z" fill="#293682"></path>
  <path d="M72.1486 17.6141C72.1486 19.4131 73.2323 20.4315 74.9616 20.4315C76.5758 20.4315 77.6372 19.2533 78.1196 17.5695L77.2883 17.3391C76.9655 18.3092 76.4348 18.9076 75.6963 18.9076C74.7278 18.9076 74.4049 18.1902 74.4049 17.3614V9.88309H77.563V8.68255H74.4049V5.12924H73.2508C72.8129 7.80909 71.4547 8.77547 70.0223 9.07653V9.88309H72.1412" fill="#293682"></path>
  <path d="M67.3095 6.60112C68.0926 6.60112 68.7828 5.93208 68.7828 5.05491C68.7828 4.22233 68.0926 3.5533 67.3095 3.5533C66.5265 3.5533 65.8363 4.22233 65.8363 5.05491C65.8363 5.93208 66.5043 6.60112 67.3095 6.60112Z" fill="#293682"></path>
  <path d="M66.2482 10.9164V18.0267C66.2482 18.9968 65.7658 19.3425 64.9791 19.3908L64.6339 19.4131V20.1973H70.0965V19.4131L69.7736 19.3908C68.9906 19.3462 68.5045 18.9968 68.5045 18.0267V8.47069L64.5152 8.77175V9.5337L65.0904 9.55601C65.8029 9.57831 66.2445 9.94999 66.2445 10.9201" fill="#293682"></path>
  <path d="M93.6982 20.4278C95.2197 20.4278 96.3961 19.6435 96.9045 18.3055V20.1973H100.753V19.4131L100.43 19.3908C99.6469 19.3462 99.1608 18.9968 99.1608 18.0267V3.73915L95.242 4.08481V4.84676L95.7504 4.86907C96.4629 4.89137 96.9045 5.25933 96.9045 6.22943V10.3849C96.3961 9.0914 95.2197 8.32945 93.6982 8.32945C90.6775 8.32945 88.9742 11.2137 88.9742 14.3768C88.9742 17.5398 90.6775 20.4241 93.6982 20.4241M94.0916 9.64893C95.7987 9.64893 96.9045 11.4962 96.9045 14.3805C96.9045 17.2647 95.7987 19.112 94.0916 19.112C92.4773 19.112 91.416 17.287 91.416 14.3805C91.416 11.4739 92.4773 9.64893 94.0916 9.64893Z" fill="#293682"></path>
  <path d="M128.014 28.1477C126.678 28.1477 125.524 29.0248 125.019 30.5933V28.2406L121.145 28.5416V29.3036L121.605 29.3259C122.321 29.3742 122.759 29.7199 122.759 30.69V37.8003C122.759 38.7704 122.273 39.1161 121.49 39.1644L121.145 39.1867V39.9709H126.607V39.1867L126.284 39.1644C125.501 39.1161 125.015 38.7704 125.015 37.8003V33.9236C125.06 31.0394 126.307 29.2367 127.828 29.2367C128.173 29.2367 128.403 29.3296 128.589 29.5378C128.199 29.7459 127.943 30.1399 127.943 30.6231C127.943 31.2921 128.496 31.8459 129.164 31.8459C129.832 31.8459 130.385 31.2921 130.385 30.5079C130.385 29.0546 129.301 28.1514 128.01 28.1514" fill="#293682"></path>
  <path d="M135.436 28.1031C132.418 28.1031 130.411 30.9873 130.411 34.1504C130.411 37.3134 132.348 40.1977 135.666 40.1977C137.992 40.1977 139.306 38.6031 139.837 36.8042L138.846 36.5254C138.386 37.7706 137.577 38.7407 135.966 38.7407C134.1 38.7407 132.83 36.964 132.83 34.1466H140V33.4776C140 30.5004 138.248 28.0993 135.436 28.0993M132.875 33.0204C133.105 30.7829 134.029 29.4188 135.41 29.4188C136.679 29.4188 137.484 30.5971 137.577 33.0204" fill="#293682"></path>
  <path d="M119.185 38.053V32.028C119.185 29.5601 117.641 28.1031 115.036 28.1031C112.802 28.1031 110.817 29.5824 110.817 31.2661C110.817 31.9834 111.348 32.5373 112.038 32.5373C112.728 32.5373 113.259 31.9834 113.259 31.3144C113.259 30.8535 113.006 30.4372 112.635 30.2291C113.051 29.653 113.786 29.3073 114.687 29.3073C116.094 29.3073 116.947 30.3703 116.947 32.147V32.6785L113.537 34.0872C111.255 35.035 110.472 35.8638 110.472 37.3654C110.472 39.0975 111.715 40.2051 113.678 40.2051C115.151 40.2051 116.376 39.3056 116.929 37.9415V38.2872C116.929 39.4655 117.76 40.1791 119.141 40.1791C119.694 40.1791 120.131 40.1085 120.592 39.9709V39.1867C119.623 39.3019 119.185 38.9339 119.185 38.0568M116.925 35.4438C116.81 37.4769 115.797 38.8373 114.391 38.8373C113.378 38.8373 112.732 38.146 112.732 37.083C112.732 36.1389 113.24 35.3992 114.209 34.9829L116.951 33.7601" fill="#293682"></path>
  <path d="M86.8218 37.1053C86.499 38.0754 85.9683 38.6738 85.2298 38.6738C84.2612 38.6738 83.9384 37.9601 83.9384 37.1276V29.6455H87.0964V28.445H83.9384V24.888H82.7843C82.3464 27.5678 80.9882 28.5342 79.5557 28.8353V29.6418H81.6747V37.3766C81.6747 39.1793 82.7583 40.194 84.4876 40.194C86.1019 40.194 87.1632 39.0157 87.6457 37.332" fill="#293682"></path>
  <path d="M72.208 38.053V32.028C72.208 29.5601 70.6643 28.1031 68.0592 28.1031C65.8252 28.1031 63.8398 29.5824 63.8398 31.2661C63.8398 31.9834 64.3705 32.5373 65.0607 32.5373C65.7509 32.5373 66.2816 31.9834 66.2816 31.3144C66.2816 30.8535 66.0293 30.4372 65.6582 30.2291C66.0738 29.653 66.8086 29.3073 67.7103 29.3073C69.1168 29.3073 69.9703 30.3703 69.9703 32.147V32.6785L66.5599 34.0872C64.2777 35.035 63.4947 35.8638 63.4947 37.3654C63.4947 39.0975 64.7378 40.2051 66.7009 40.2051C68.1742 40.2051 69.3988 39.3056 69.9518 37.9415V38.2872C69.9518 39.4655 70.783 40.1791 72.1635 40.1791C72.7164 40.1791 73.1543 40.1085 73.6145 39.9709V39.1867C72.6459 39.3019 72.208 38.9339 72.208 38.0568M69.948 35.4438C69.833 37.4769 68.8199 38.8373 67.4135 38.8373C66.4004 38.8373 65.7547 38.146 65.7547 37.083C65.7547 36.1389 66.2631 35.3992 67.2316 34.9829L69.974 33.7601" fill="#293682"></path>
  <path d="M105.885 38.7444C104.018 38.7444 102.749 36.9677 102.749 34.1504C102.749 31.333 103.992 29.4634 105.863 29.4634C106.694 29.4634 107.336 29.7385 107.729 30.2477C107.384 30.4781 107.154 30.8721 107.154 31.3107C107.154 31.9797 107.707 32.5335 108.375 32.5335C109.043 32.5335 109.596 31.9797 109.596 31.1955C109.596 29.8091 108.212 28.1031 105.748 28.1031C102.311 28.1031 100.33 30.9873 100.33 34.1504C100.33 37.3134 102.267 40.1977 105.584 40.1977C107.867 40.1977 109.158 38.6738 109.663 36.9417L108.672 36.6406C108.234 37.8189 107.451 38.7407 105.885 38.7407" fill="#293682"></path>
  <path d="M78.038 37.8003V23.509L74.1192 23.8547V24.6167L74.6276 24.639C75.3438 24.6613 75.7817 25.0329 75.7817 26.003V37.8003C75.7817 38.7704 75.2993 39.1161 74.5125 39.1644L74.1674 39.1867V39.9709H79.63V39.1867L79.3071 39.1644C78.5241 39.1161 78.038 38.7704 78.038 37.8003Z" fill="#293682"></path>
  <path d="M98.233 37.8003V31.4965C98.233 29.6976 97.1272 28.196 94.9377 28.196C93.3939 28.196 92.058 29.1178 91.5273 30.7569V23.509L87.6085 23.8547V24.6167L88.1169 24.639C88.8295 24.6613 89.2711 25.0329 89.2711 26.003V37.8003C89.2711 38.7704 88.7886 39.1161 88.0019 39.1644L87.6568 39.1867V39.9709H93.1193V39.1867L92.7965 39.1644C92.0135 39.1161 91.5273 38.7704 91.5273 37.8003V34.0128C91.5719 31.2438 92.7742 29.5786 94.177 29.5786C95.2606 29.5786 95.9731 30.3183 95.9731 31.7493V37.7966C95.9731 38.7667 95.4906 39.1123 94.7039 39.1607L94.3588 39.183V39.9672H99.8213V39.183L99.4985 39.1607C98.7155 39.1123 98.2293 38.7667 98.2293 37.7966" fill="#293682"></path>
  <path d="M58.0544 28.1031C55.0337 28.1031 53.0297 30.9873 53.0297 34.1504C53.0297 37.3134 54.9669 40.1977 58.2845 40.1977C60.6112 40.1977 61.9249 38.6031 62.4556 36.8042L61.4648 36.5254C61.0046 37.7706 60.1956 38.7407 58.5851 38.7407C56.7184 38.7407 55.4493 36.964 55.4493 34.1466H62.6189V33.4776C62.6189 30.5004 60.8673 28.0993 58.0544 28.0993M55.4975 33.0204C55.7276 30.7829 56.6516 29.4188 58.0321 29.4188C59.3013 29.4188 60.1066 30.5971 60.1993 33.0204" fill="#293682"></path>
  <path d="M7.03229 41.9818C8.4239 42.4575 9.88973 42.714 11.4669 42.714C18.1355 42.714 22.7891 37.8709 22.7891 28.6606V1.21169L25.3162 0V29.1363C25.3162 38.5325 20.4808 44 13.6267 44C11.2442 44 9.01023 43.2678 7.03229 41.9818ZM4.14144 39.1941C5.68149 39.707 7.21783 40.0378 8.57605 40.0378C14.1796 40.0378 17.9203 36.5143 17.9203 28.5528V3.30427L20.4103 2.12975V28.7721C20.4103 37.1015 16.1984 41.361 10.335 41.361C8.17155 41.361 5.97466 40.5545 4.14144 39.1941ZM2.38244 36.6964C3.73695 37.0978 4.98383 37.358 6.08228 37.358C10.4427 37.358 13.1183 34.9718 13.1183 28.6978V5.43031L15.5749 4.25579V28.3298C15.5749 35.3769 12.3501 38.5697 7.73366 38.5697C5.79282 38.5697 3.9596 37.9081 2.38244 36.6964ZM10.8063 29.3594V6.38554L0 11.2658V29.9094C0 33.4702 2.234 35.8527 5.53305 35.8527C8.83211 35.8527 10.8101 33.4293 10.8101 29.3556" fill="#293682"></path>
  <path d="M39.2324 6.34465V14.9083C39.2324 18.0713 41.099 20.543 44.6726 20.543C47.7379 20.543 50.0424 18.2794 50.0424 14.8414V6.57881C50.0424 5.67934 50.6436 4.93969 51.6567 4.86907L51.9795 4.84676V4.04021H46.6098V4.84676L46.9549 4.86907C47.9457 4.93969 48.5692 5.65332 48.5692 6.57881V14.5886C48.5692 17.1978 47.2109 18.7886 45.0883 18.7886C42.9656 18.7886 41.6779 17.1049 41.6779 14.5626V6.34465C41.6779 5.44518 42.1603 4.93597 43.1771 4.86907L43.5 4.84676V4.04021H37.3917V4.84676L37.7368 4.86907C38.7277 4.93969 39.2361 5.42288 39.2361 6.34465" fill="#293682"></path>
  <path d="M46.4836 24.6167L46.8287 24.639C47.6822 24.6873 48.3279 25.0329 48.3279 26.003V31.0356H42.2902V26.003C42.2902 25.0329 42.9359 24.7096 43.7894 24.639L44.1123 24.6167V23.8101H38.004V24.6167L38.3491 24.639C39.2027 24.6873 39.8484 25.0329 39.8484 26.003V37.778C39.8484 38.7481 39.2027 39.0938 38.3491 39.1384L38.004 39.1607V39.9672H44.1123V39.1607L43.7894 39.1384C42.9359 39.0677 42.2902 38.7481 42.2902 37.778V32.2845H48.3279V37.778C48.3279 38.7481 47.6822 39.0938 46.8287 39.1384L46.4836 39.1607V39.9672H52.5918V39.1607L52.269 39.1384C51.4155 39.0677 50.7698 38.7481 50.7698 37.778V26.003C50.7698 25.0329 51.4155 24.7096 52.269 24.639L52.5918 24.6167V23.8101H46.4836" fill="#293682"></path>
  <path d="M51.9573 8.77175V9.5337L52.4174 9.55601C53.1299 9.60432 53.5715 9.94999 53.5715 10.9201V18.0304C53.5715 19.0005 53.0854 19.3462 52.3024 19.3945L51.9573 19.4168V20.201H57.4198V19.4168L57.097 19.3945C56.3139 19.3462 55.8278 19.0005 55.8278 18.0304V14.2429C55.8761 11.4739 57.071 9.80875 58.4774 9.80875C59.561 9.80875 60.2735 10.5484 60.2735 11.9794V18.0267C60.2735 18.9968 59.7911 19.3425 59.0044 19.3908L58.6593 19.4131V20.1973H64.1218V19.4131L63.799 19.3908C63.016 19.3425 62.5298 18.9968 62.5298 18.0267V11.7229C62.5298 9.92397 61.4239 8.42237 59.2345 8.42237C57.6907 8.42237 56.3548 9.34415 55.8241 10.9833V8.46697" fill="#293682"></path>
  <path d="M83.4894 20.4278C85.8161 20.4278 87.1298 18.8332 87.6605 17.0343L86.6697 16.7555C86.2095 18.0007 85.4005 18.9708 83.79 18.9708C81.9233 18.9708 80.6542 17.1941 80.6542 14.3768H87.8238V13.7077C87.8238 10.7305 86.0722 8.32945 83.2593 8.32945C80.2423 8.32945 78.2346 11.2137 78.2346 14.3768C78.2346 17.5398 80.1718 20.4241 83.4894 20.4241M83.237 9.64893C84.5062 9.64893 85.3115 10.8272 85.4042 13.2505H80.7024C80.9325 11.013 81.8565 9.64893 83.237 9.64893Z" fill="#293682"></path>
  <path d="M72.1486 17.6141C72.1486 19.4131 73.2323 20.4315 74.9616 20.4315C76.5758 20.4315 77.6372 19.2533 78.1196 17.5695L77.2883 17.3391C76.9655 18.3092 76.4348 18.9076 75.6963 18.9076C74.7278 18.9076 74.4049 18.1902 74.4049 17.3614V9.88309H77.563V8.68255H74.4049V5.12924H73.2508C72.8129 7.80909 71.4547 8.77547 70.0223 9.07653V9.88309H72.1412" fill="#293682"></path>
  <path d="M67.3095 6.60112C68.0926 6.60112 68.7828 5.93208 68.7828 5.05491C68.7828 4.22233 68.0926 3.5533 67.3095 3.5533C66.5265 3.5533 65.8363 4.22233 65.8363 5.05491C65.8363 5.93208 66.5043 6.60112 67.3095 6.60112Z" fill="#293682"></path>
  <path d="M66.2482 10.9164V18.0267C66.2482 18.9968 65.7658 19.3425 64.9791 19.3908L64.6339 19.4131V20.1973H70.0965V19.4131L69.7736 19.3908C68.9906 19.3462 68.5045 18.9968 68.5045 18.0267V8.47069L64.5152 8.77175V9.5337L65.0904 9.55601C65.8029 9.57831 66.2445 9.94999 66.2445 10.9201" fill="#293682"></path>
  <path d="M93.6982 20.4278C95.2197 20.4278 96.3961 19.6435 96.9045 18.3055V20.1973H100.753V19.4131L100.43 19.3908C99.6469 19.3462 99.1608 18.9968 99.1608 18.0267V3.73915L95.242 4.08481V4.84676L95.7504 4.86907C96.4629 4.89137 96.9045 5.25933 96.9045 6.22943V10.3849C96.3961 9.0914 95.2197 8.32945 93.6982 8.32945C90.6775 8.32945 88.9742 11.2137 88.9742 14.3768C88.9742 17.5398 90.6775 20.4241 93.6982 20.4241M94.0916 9.64893C95.7987 9.64893 96.9045 11.4962 96.9045 14.3805C96.9045 17.2647 95.7987 19.112 94.0916 19.112C92.4773 19.112 91.416 17.287 91.416 14.3805C91.416 11.4739 92.4773 9.64893 94.0916 9.64893Z" fill="#293682"></path>
  <path d="M128.014 28.1477C126.678 28.1477 125.524 29.0248 125.019 30.5933V28.2406L121.145 28.5416V29.3036L121.605 29.3259C122.321 29.3742 122.759 29.7199 122.759 30.69V37.8003C122.759 38.7704 122.273 39.1161 121.49 39.1644L121.145 39.1867V39.9709H126.607V39.1867L126.284 39.1644C125.501 39.1161 125.015 38.7704 125.015 37.8003V33.9236C125.06 31.0394 126.307 29.2367 127.828 29.2367C128.173 29.2367 128.403 29.3296 128.589 29.5378C128.199 29.7459 127.943 30.1399 127.943 30.6231C127.943 31.2921 128.496 31.8459 129.164 31.8459C129.832 31.8459 130.385 31.2921 130.385 30.5079C130.385 29.0546 129.301 28.1514 128.01 28.1514" fill="#293682"></path>
  <path d="M135.436 28.1031C132.418 28.1031 130.411 30.9873 130.411 34.1504C130.411 37.3134 132.348 40.1977 135.666 40.1977C137.992 40.1977 139.306 38.6031 139.837 36.8042L138.846 36.5254C138.386 37.7706 137.577 38.7407 135.966 38.7407C134.1 38.7407 132.83 36.964 132.83 34.1466H140V33.4776C140 30.5004 138.248 28.0993 135.436 28.0993M132.875 33.0204C133.105 30.7829 134.029 29.4188 135.41 29.4188C136.679 29.4188 137.484 30.5971 137.577 33.0204" fill="#293682"></path>
  <path d="M119.185 38.053V32.028C119.185 29.5601 117.641 28.1031 115.036 28.1031C112.802 28.1031 110.817 29.5824 110.817 31.2661C110.817 31.9834 111.348 32.5373 112.038 32.5373C112.728 32.5373 113.259 31.9834 113.259 31.3144C113.259 30.8535 113.006 30.4372 112.635 30.2291C113.051 29.653 113.786 29.3073 114.687 29.3073C116.094 29.3073 116.947 30.3703 116.947 32.147V32.6785L113.537 34.0872C111.255 35.035 110.472 35.8638 110.472 37.3654C110.472 39.0975 111.715 40.2051 113.678 40.2051C115.151 40.2051 116.376 39.3056 116.929 37.9415V38.2872C116.929 39.4655 117.76 40.1791 119.141 40.1791C119.694 40.1791 120.131 40.1085 120.592 39.9709V39.1867C119.623 39.3019 119.185 38.9339 119.185 38.0568M116.925 35.4438C116.81 37.4769 115.797 38.8373 114.391 38.8373C113.378 38.8373 112.732 38.146 112.732 37.083C112.732 36.1389 113.24 35.3992 114.209 34.9829L116.951 33.7601" fill="#293682"></path>
  <path d="M86.8218 37.1053C86.499 38.0754 85.9683 38.6738 85.2298 38.6738C84.2612 38.6738 83.9384 37.9601 83.9384 37.1276V29.6455H87.0964V28.445H83.9384V24.888H82.7843C82.3464 27.5678 80.9882 28.5342 79.5557 28.8353V29.6418H81.6747V37.3766C81.6747 39.1793 82.7583 40.194 84.4876 40.194C86.1019 40.194 87.1632 39.0157 87.6457 37.332" fill="#293682"></path>
  <path d="M72.208 38.053V32.028C72.208 29.5601 70.6643 28.1031 68.0592 28.1031C65.8252 28.1031 63.8398 29.5824 63.8398 31.2661C63.8398 31.9834 64.3705 32.5373 65.0607 32.5373C65.7509 32.5373 66.2816 31.9834 66.2816 31.3144C66.2816 30.8535 66.0293 30.4372 65.6582 30.2291C66.0738 29.653 66.8086 29.3073 67.7103 29.3073C69.1168 29.3073 69.9703 30.3703 69.9703 32.147V32.6785L66.5599 34.0872C64.2777 35.035 63.4947 35.8638 63.4947 37.3654C63.4947 39.0975 64.7378 40.2051 66.7009 40.2051C68.1742 40.2051 69.3988 39.3056 69.9518 37.9415V38.2872C69.9518 39.4655 70.783 40.1791 72.1635 40.1791C72.7164 40.1791 73.1543 40.1085 73.6145 39.9709V39.1867C72.6459 39.3019 72.208 38.9339 72.208 38.0568M69.948 35.4438C69.833 37.4769 68.8199 38.8373 67.4135 38.8373C66.4004 38.8373 65.7547 38.146 65.7547 37.083C65.7547 36.1389 66.2631 35.3992 67.2316 34.9829L69.974 33.7601" fill="#293682"></path>
  <path d="M105.885 38.7444C104.018 38.7444 102.749 36.9677 102.749 34.1504C102.749 31.333 103.992 29.4634 105.863 29.4634C106.694 29.4634 107.336 29.7385 107.729 30.2477C107.384 30.4781 107.154 30.8721 107.154 31.3107C107.154 31.9797 107.707 32.5335 108.375 32.5335C109.043 32.5335 109.596 31.9797 109.596 31.1955C109.596 29.8091 108.212 28.1031 105.748 28.1031C102.311 28.1031 100.33 30.9873 100.33 34.1504C100.33 37.3134 102.267 40.1977 105.584 40.1977C107.867 40.1977 109.158 38.6738 109.663 36.9417L108.672 36.6406C108.234 37.8189 107.451 38.7407 105.885 38.7407" fill="#293682"></path>
  <path d="M78.038 37.8003V23.509L74.1192 23.8547V24.6167L74.6276 24.639C75.3438 24.6613 75.7817 25.0329 75.7817 26.003V37.8003C75.7817 38.7704 75.2993 39.1161 74.5125 39.1644L74.1674 39.1867V39.9709H79.63V39.1867L79.3071 39.1644C78.5241 39.1161 78.038 38.7704 78.038 37.8003Z" fill="#293682"></path>
  <path d="M98.233 37.8003V31.4965C98.233 29.6976 97.1272 28.196 94.9377 28.196C93.3939 28.196 92.058 29.1178 91.5273 30.7569V23.509L87.6085 23.8547V24.6167L88.1169 24.639C88.8295 24.6613 89.2711 25.0329 89.2711 26.003V37.8003C89.2711 38.7704 88.7886 39.1161 88.0019 39.1644L87.6568 39.1867V39.9709H93.1193V39.1867L92.7965 39.1644C92.0135 39.1161 91.5273 38.7704 91.5273 37.8003V34.0128C91.5719 31.2438 92.7742 29.5786 94.177 29.5786C95.2606 29.5786 95.9731 30.3183 95.9731 31.7493V37.7966C95.9731 38.7667 95.4906 39.1123 94.7039 39.1607L94.3588 39.183V39.9672H99.8213V39.183L99.4985 39.1607C98.7155 39.1123 98.2293 38.7667 98.2293 37.7966" fill="#293682"></path>
  <path d="M58.0544 28.1031C55.0337 28.1031 53.0297 30.9873 53.0297 34.1504C53.0297 37.3134 54.9669 40.1977 58.2845 40.1977C60.6112 40.1977 61.9249 38.6031 62.4556 36.8042L61.4648 36.5254C61.0046 37.7706 60.1956 38.7407 58.5851 38.7407C56.7184 38.7407 55.4493 36.964 55.4493 34.1466H62.6189V33.4776C62.6189 30.5004 60.8673 28.0993 58.0544 28.0993M55.4975 33.0204C55.7276 30.7829 56.6516 29.4188 58.0321 29.4188C59.3013 29.4188 60.1066 30.5971 60.1993 33.0204" fill="#293682"></path>
  <path d="M7.03229 41.9818C8.4239 42.4575 9.88973 42.714 11.4669 42.714C18.1355 42.714 22.7891 37.8709 22.7891 28.6606V1.21169L25.3162 0V29.1363C25.3162 38.5325 20.4808 44 13.6267 44C11.2442 44 9.01023 43.2678 7.03229 41.9818ZM4.14144 39.1941C5.68149 39.707 7.21783 40.0378 8.57605 40.0378C14.1796 40.0378 17.9203 36.5143 17.9203 28.5528V3.30427L20.4103 2.12975V28.7721C20.4103 37.1015 16.1984 41.361 10.335 41.361C8.17155 41.361 5.97466 40.5545 4.14144 39.1941ZM2.38244 36.6964C3.73695 37.0978 4.98383 37.358 6.08228 37.358C10.4427 37.358 13.1183 34.9718 13.1183 28.6978V5.43031L15.5749 4.25579V28.3298C15.5749 35.3769 12.3501 38.5697 7.73366 38.5697C5.79282 38.5697 3.9596 37.9081 2.38244 36.6964ZM10.8063 29.3594V6.38554L0 11.2658V29.9094C0 33.4702 2.234 35.8527 5.53305 35.8527C8.83211 35.8527 10.8101 33.4293 10.8101 29.3556" fill="#293682"></path>
  <path d="M39.2324 6.34465V14.9083C39.2324 18.0713 41.099 20.543 44.6726 20.543C47.7379 20.543 50.0424 18.2794 50.0424 14.8414V6.57881C50.0424 5.67934 50.6436 4.93969 51.6567 4.86907L51.9795 4.84676V4.04021H46.6098V4.84676L46.9549 4.86907C47.9457 4.93969 48.5692 5.65332 48.5692 6.57881V14.5886C48.5692 17.1978 47.2109 18.7886 45.0883 18.7886C42.9656 18.7886 41.6779 17.1049 41.6779 14.5626V6.34465C41.6779 5.44518 42.1603 4.93597 43.1771 4.86907L43.5 4.84676V4.04021H37.3917V4.84676L37.7368 4.86907C38.7277 4.93969 39.2361 5.42288 39.2361 6.34465" fill="#293682"></path>
  <path d="M46.4836 24.6167L46.8287 24.639C47.6822 24.6873 48.3279 25.0329 48.3279 26.003V31.0356H42.2902V26.003C42.2902 25.0329 42.9359 24.7096 43.7894 24.639L44.1123 24.6167V23.8101H38.004V24.6167L38.3491 24.639C39.2027 24.6873 39.8484 25.0329 39.8484 26.003V37.778C39.8484 38.7481 39.2027 39.0938 38.3491 39.1384L38.004 39.1607V39.9672H44.1123V39.1607L43.7894 39.1384C42.9359 39.0677 42.2902 38.7481 42.2902 37.778V32.2845H48.3279V37.778C48.3279 38.7481 47.6822 39.0938 46.8287 39.1384L46.4836 39.1607V39.9672H52.5918V39.1607L52.269 39.1384C51.4155 39.0677 50.7698 38.7481 50.7698 37.778V26.003C50.7698 25.0329 51.4155 24.7096 52.269 24.639L52.5918 24.6167V23.8101H46.4836" fill="#293682"></path>
  <path d="M51.9573 8.77175V9.5337L52.4174 9.55601C53.1299 9.60432 53.5715 9.94999 53.5715 10.9201V18.0304C53.5715 19.0005 53.0854 19.3462 52.3024 19.3945L51.9573 19.4168V20.201H57.4198V19.4168L57.097 19.3945C56.3139 19.3462 55.8278 19.0005 55.8278 18.0304V14.2429C55.8761 11.4739 57.071 9.80875 58.4774 9.80875C59.561 9.80875 60.2735 10.5484 60.2735 11.9794V18.0267C60.2735 18.9968 59.7911 19.3425 59.0044 19.3908L58.6593 19.4131V20.1973H64.1218V19.4131L63.799 19.3908C63.016 19.3425 62.5298 18.9968 62.5298 18.0267V11.7229C62.5298 9.92397 61.4239 8.42237 59.2345 8.42237C57.6907 8.42237 56.3548 9.34415 55.8241 10.9833V8.46697" fill="#293682"></path>
  <path d="M83.4894 20.4278C85.8161 20.4278 87.1298 18.8332 87.6605 17.0343L86.6697 16.7555C86.2095 18.0007 85.4005 18.9708 83.79 18.9708C81.9233 18.9708 80.6542 17.1941 80.6542 14.3768H87.8238V13.7077C87.8238 10.7305 86.0722 8.32945 83.2593 8.32945C80.2423 8.32945 78.2346 11.2137 78.2346 14.3768C78.2346 17.5398 80.1718 20.4241 83.4894 20.4241M83.237 9.64893C84.5062 9.64893 85.3115 10.8272 85.4042 13.2505H80.7024C80.9325 11.013 81.8565 9.64893 83.237 9.64893Z" fill="#293682"></path>
  <path d="M72.1486 17.6141C72.1486 19.4131 73.2323 20.4315 74.9616 20.4315C76.5758 20.4315 77.6372 19.2533 78.1196 17.5695L77.2883 17.3391C76.9655 18.3092 76.4348 18.9076 75.6963 18.9076C74.7278 18.9076 74.4049 18.1902 74.4049 17.3614V9.88309H77.563V8.68255H74.4049V5.12924H73.2508C72.8129 7.80909 71.4547 8.77547 70.0223 9.07653V9.88309H72.1412" fill="#293682"></path>
  <path d="M67.3095 6.60112C68.0926 6.60112 68.7828 5.93208 68.7828 5.05491C68.7828 4.22233 68.0926 3.5533 67.3095 3.5533C66.5265 3.5533 65.8363 4.22233 65.8363 5.05491C65.8363 5.93208 66.5043 6.60112 67.3095 6.60112Z" fill="#293682"></path>
  <path d="M66.2482 10.9164V18.0267C66.2482 18.9968 65.7658 19.3425 64.9791 19.3908L64.6339 19.4131V20.1973H70.0965V19.4131L69.7736 19.3908C68.9906 19.3462 68.5045 18.9968 68.5045 18.0267V8.47069L64.5152 8.77175V9.5337L65.0904 9.55601C65.8029 9.57831 66.2445 9.94999 66.2445 10.9201" fill="#293682"></path>
  <path d="M93.6982 20.4278C95.2197 20.4278 96.3961 19.6435 96.9045 18.3055V20.1973H100.753V19.4131L100.43 19.3908C99.6469 19.3462 99.1608 18.9968 99.1608 18.0267V3.73915L95.242 4.08481V4.84676L95.7504 4.86907C96.4629 4.89137 96.9045 5.25933 96.9045 6.22943V10.3849C96.3961 9.0914 95.2197 8.32945 93.6982 8.32945C90.6775 8.32945 88.9742 11.2137 88.9742 14.3768C88.9742 17.5398 90.6775 20.4241 93.6982 20.4241M94.0916 9.64893C95.7987 9.64893 96.9045 11.4962 96.9045 14.3805C96.9045 17.2647 95.7987 19.112 94.0916 19.112C92.4773 19.112 91.416 17.287 91.416 14.3805C91.416 11.4739 92.4773 9.64893 94.0916 9.64893Z" fill="#293682"></path>
  <path d="M128.014 28.1477C126.678 28.1477 125.524 29.0248 125.019 30.5933V28.2406L121.145 28.5416V29.3036L121.605 29.3259C122.321 29.3742 122.759 29.7199 122.759 30.69V37.8003C122.759 38.7704 122.273 39.1161 121.49 39.1644L121.145 39.1867V39.9709H126.607V39.1867L126.284 39.1644C125.501 39.1161 125.015 38.7704 125.015 37.8003V33.9236C125.06 31.0394 126.307 29.2367 127.828 29.2367C128.173 29.2367 128.403 29.3296 128.589 29.5378C128.199 29.7459 127.943 30.1399 127.943 30.6231C127.943 31.2921 128.496 31.8459 129.164 31.8459C129.832 31.8459 130.385 31.2921 130.385 30.5079C130.385 29.0546 129.301 28.1514 128.01 28.1514" fill="#293682"></path>
  <path d="M135.436 28.1031C132.418 28.1031 130.411 30.9873 130.411 34.1504C130.411 37.3134 132.348 40.1977 135.666 40.1977C137.992 40.1977 139.306 38.6031 139.837 36.8042L138.846 36.5254C138.386 37.7706 137.577 38.7407 135.966 38.7407C134.1 38.7407 132.83 36.964 132.83 34.1466H140V33.4776C140 30.5004 138.248 28.0993 135.436 28.0993M132.875 33.0204C133.105 30.7829 134.029 29.4188 135.41 29.4188C136.679 29.4188 137.484 30.5971 137.577 33.0204" fill="#293682"></path>
  <path d="M119.185 38.053V32.028C119.185 29.5601 117.641 28.1031 115.036 28.1031C112.802 28.1031 110.817 29.5824 110.817 31.2661C110.817 31.9834 111.348 32.5373 112.038 32.5373C112.728 32.5373 113.259 31.9834 113.259 31.3144C113.259 30.8535 113.006 30.4372 112.635 30.2291C113.051 29.653 113.786 29.3073 114.687 29.3073C116.094 29.3073 116.947 30.3703 116.947 32.147V32.6785L113.537 34.0872C111.255 35.035 110.472 35.8638 110.472 37.3654C110.472 39.0975 111.715 40.2051 113.678 40.2051C115.151 40.2051 116.376 39.3056 116.929 37.9415V38.2872C116.929 39.4655 117.76 40.1791 119.141 40.1791C119.694 40.1791 120.131 40.1085 120.592 39.9709V39.1867C119.623 39.3019 119.185 38.9339 119.185 38.0568M116.925 35.4438C116.81 37.4769 115.797 38.8373 114.391 38.8373C113.378 38.8373 112.732 38.146 112.732 37.083C112.732 36.1389 113.24 35.3992 114.209 34.9829L116.951 33.7601" fill="#293682"></path>
  <path d="M86.8218 37.1053C86.499 38.0754 85.9683 38.6738 85.2298 38.6738C84.2612 38.6738 83.9384 37.9601 83.9384 37.1276V29.6455H87.0964V28.445H83.9384V24.888H82.7843C82.3464 27.5678 80.9882 28.5342 79.5557 28.8353V29.6418H81.6747V37.3766C81.6747 39.1793 82.7583 40.194 84.4876 40.194C86.1019 40.194 87.1632 39.0157 87.6457 37.332" fill="#293682"></path>
  <path d="M72.208 38.053V32.028C72.208 29.5601 70.6643 28.1031 68.0592 28.1031C65.8252 28.1031 63.8398 29.5824 63.8398 31.2661C63.8398 31.9834 64.3705 32.5373 65.0607 32.5373C65.7509 32.5373 66.2816 31.9834 66.2816 31.3144C66.2816 30.8535 66.0293 30.4372 65.6582 30.2291C66.0738 29.653 66.8086 29.3073 67.7103 29.3073C69.1168 29.3073 69.9703 30.3703 69.9703 32.147V32.6785L66.5599 34.0872C64.2777 35.035 63.4947 35.8638 63.4947 37.3654C63.4947 39.0975 64.7378 40.2051 66.7009 40.2051C68.1742 40.2051 69.3988 39.3056 69.9518 37.9415V38.2872C69.9518 39.4655 70.783 40.1791 72.1635 40.1791C72.7164 40.1791 73.1543 40.1085 73.6145 39.9709V39.1867C72.6459 39.3019 72.208 38.9339 72.208 38.0568M69.948 35.4438C69.833 37.4769 68.8199 38.8373 67.4135 38.8373C66.4004 38.8373 65.7547 38.146 65.7547 37.083C65.7547 36.1389 66.2631 35.3992 67.2316 34.9829L69.974 33.7601" fill="#293682"></path>
  <path d="M105.885 38.7444C104.018 38.7444 102.749 36.9677 102.749 34.1504C102.749 31.333 103.992 29.4634 105.863 29.4634C106.694 29.4634 107.336 29.7385 107.729 30.2477C107.384 30.4781 107.154 30.8721 107.154 31.3107C107.154 31.9797 107.707 32.5335 108.375 32.5335C109.043 32.5335 109.596 31.9797 109.596 31.1955C109.596 29.8091 108.212 28.1031 105.748 28.1031C102.311 28.1031 100.33 30.9873 100.33 34.1504C100.33 37.3134 102.267 40.1977 105.584 40.1977C107.867 40.1977 109.158 38.6738 109.663 36.9417L108.672 36.6406C108.234 37.8189 107.451 38.7407 105.885 38.7407" fill="#293682"></path>
  <path d="M78.038 37.8003V23.509L74.1192 23.8547V24.6167L74.6276 24.639C75.3438 24.6613 75.7817 25.0329 75.7817 26.003V37.8003C75.7817 38.7704 75.2993 39.1161 74.5125 39.1644L74.1674 39.1867V39.9709H79.63V39.1867L79.3071 39.1644C78.5241 39.1161 78.038 38.7704 78.038 37.8003Z" fill="#293682"></path>
  <path d="M98.233 37.8003V31.4965C98.233 29.6976 97.1272 28.196 94.9377 28.196C93.3939 28.196 92.058 29.1178 91.5273 30.7569V23.509L87.6085 23.8547V24.6167L88.1169 24.639C88.8295 24.6613 89.2711 25.0329 89.2711 26.003V37.8003C89.2711 38.7704 88.7886 39.1161 88.0019 39.1644L87.6568 39.1867V39.9709H93.1193V39.1867L92.7965 39.1644C92.0135 39.1161 91.5273 38.7704 91.5273 37.8003V34.0128C91.5719 31.2438 92.7742 29.5786 94.177 29.5786C95.2606 29.5786 95.9731 30.3183 95.9731 31.7493V37.7966C95.9731 38.7667 95.4906 39.1123 94.7039 39.1607L94.3588 39.183V39.9672H99.8213V39.183L99.4985 39.1607C98.7155 39.1123 98.2293 38.7667 98.2293 37.7966" fill="#293682"></path>
  <path d="M58.0544 28.1031C55.0337 28.1031 53.0297 30.9873 53.0297 34.1504C53.0297 37.3134 54.9669 40.1977 58.2845 40.1977C60.6112 40.1977 61.9249 38.6031 62.4556 36.8042L61.4648 36.5254C61.0046 37.7706 60.1956 38.7407 58.5851 38.7407C56.7184 38.7407 55.4493 36.964 55.4493 34.1466H62.6189V33.4776C62.6189 30.5004 60.8673 28.0993 58.0544 28.0993M55.4975 33.0204C55.7276 30.7829 56.6516 29.4188 58.0321 29.4188C59.3013 29.4188 60.1066 30.5971 60.1993 33.0204" fill="#293682"></path>
</svg>
