<?xml version="1.0" encoding="UTF-8"?>
<svg xmlns="http://www.w3.org/2000/svg" width="70" height="70" viewBox="0 0 70 70" fill="none">
  <rect x="0.5" y="0.5" width="69" height="69" rx="34.5" stroke="#F57D7D"></rect>
  <path d="M18 37.759C18 37.8952 18.0394 38.0287 18.1146 38.1413L23.4407 46.2433V48.1032H22.7611C22.385 48.1032 22.0814 48.412 22.0814 48.7925V54.3098C22.0814 54.6912 22.3859 54.9991 22.7611 54.9991H33.6407C34.0168 54.9991 34.3204 54.6903 34.3204 54.3098V48.7925C34.3204 48.4111 34.0159 48.1032 33.6407 48.1032H32.9611V42.5996C32.9611 41.864 32.6781 41.1719 32.1632 40.6506C32.1632 40.6506 28.8349 37.274 27.8391 36.2496C27.0529 35.4503 25.7563 35.4494 24.9469 36.2496C24.7758 36.423 24.6567 36.6274 24.56 36.8399L22.0823 34.3278V29.4826C22.0823 28.5654 21.7143 27.6763 21.0875 27.056C20.4634 26.4066 19.5867 26.0343 18.6823 26.0343C18.3062 26.0343 18.0027 26.343 18.0027 26.7236V29.4826C18.0027 29.8641 18.3071 30.172 18.6823 30.172C19.0575 30.172 19.362 29.8632 19.362 29.4826V27.5337C19.6458 27.6372 19.9082 27.8061 20.1258 28.0314C20.5046 28.4064 20.7221 28.935 20.7221 29.4826V34.6139C20.7221 34.7974 20.7938 34.9726 20.9227 35.1025L27.2911 41.557C27.3547 41.6106 27.4084 41.666 27.4622 41.7214L28.1158 42.3844C28.2484 42.5188 28.423 42.586 28.5967 42.586C28.7704 42.586 28.945 42.5188 29.0775 42.3844C29.3435 42.1146 29.3435 41.6787 29.0775 41.409L28.4239 40.746C28.3433 40.6643 28.2609 40.5816 28.2116 40.5426L25.9157 38.2149C25.9068 38.2049 25.9041 38.1913 25.8951 38.1813C25.6453 37.9143 25.6525 37.4847 25.9014 37.2313C26.1799 36.9552 26.6097 36.9525 26.8747 37.2222C27.8678 38.243 31.2015 41.626 31.2015 41.626C31.4594 41.8876 31.6009 42.2336 31.6009 42.5996V48.1032H24.8009V46.0344C24.8009 45.8981 24.7615 45.7646 24.6863 45.652L19.3602 37.5501V34.9999C19.3602 34.6184 19.0557 34.3106 18.6805 34.3106C18.3053 34.3106 18.0009 34.6194 18.0009 34.9999V37.759H18ZM32.9593 49.4837V53.6214H23.4398V49.4837H32.9593Z" fill="#F57D7D"></path>
  <path d="M30.9204 52.2418C31.2957 52.2418 31.6 51.9332 31.6 51.5525C31.6 51.1718 31.2957 50.8632 30.9204 50.8632C30.545 50.8632 30.2407 51.1718 30.2407 51.5525C30.2407 51.9332 30.545 52.2418 30.9204 52.2418Z" fill="#F57D7D"></path>
  <path d="M51.8854 38.1413C51.9597 38.0278 52 37.8952 52 37.759L51.9973 26.7245C51.9973 26.343 51.6929 26.0352 51.3177 26.0352C50.4106 26.0352 49.5581 26.3939 48.9134 27.0451C48.2732 27.6971 47.9204 28.5617 47.9204 29.4808V34.3197L45.4489 36.8272C45.3495 36.6183 45.2152 36.4257 45.0496 36.2577C44.2795 35.4749 42.9354 35.4749 42.1653 36.2577L37.8386 40.6461C37.3282 41.1638 37.0416 41.8658 37.0416 42.5969V48.1041H36.362C35.9868 48.1041 35.6823 48.4129 35.6823 48.7934V54.3107C35.6823 54.6912 35.9868 55 36.362 55H38.0087C38.3454 55 38.6185 54.723 38.6185 54.3815V54.2398C38.6185 53.8984 38.3454 53.6214 38.0087 53.6214H37.0416V49.4837H46.562V53.0029C46.562 53.3444 46.2889 53.6214 45.9522 53.6214C45.6155 53.6214 45.3424 53.8984 45.3424 54.2398V54.3815C45.3424 54.723 45.6155 55 45.9522 55H47.2425C47.6177 55 47.9221 54.6912 47.9221 54.3107V48.7934C47.9221 48.4129 47.6177 48.1041 47.2425 48.1041H46.5629V46.2442L51.889 38.1422L51.8854 38.1413ZM45.3137 45.6529C45.2394 45.7665 45.1991 45.899 45.1991 46.0353V48.1041H38.3991V42.596C38.3991 42.2282 38.5415 41.8821 38.7976 41.6206L43.1244 37.2322C43.3822 36.9707 43.8282 36.9707 44.0861 37.2322C44.215 37.363 44.2849 37.5355 44.2849 37.7181C44.2849 37.9006 44.2186 38.0659 44.0977 38.1949L40.9287 41.409C40.6628 41.6787 40.6628 42.1146 40.9287 42.3844C41.1947 42.6541 41.6245 42.6541 41.8904 42.3844L49.02 35.1525C49.1785 35.0262 49.2787 34.831 49.2787 34.6112V29.4799C49.2787 28.9368 49.4963 28.4037 49.8751 28.0186C50.0945 27.7961 50.3542 27.6318 50.6389 27.53V37.5501L45.3128 45.652L45.3137 45.6529Z" fill="#F57D7D"></path>
  <path d="M39.0796 52.2418C39.455 52.2418 39.7593 51.9332 39.7593 51.5525C39.7593 51.1718 39.455 50.8632 39.0796 50.8632C38.7043 50.8632 38.4 51.1718 38.4 51.5525C38.4 51.9332 38.7043 52.2418 39.0796 52.2418Z" fill="#F57D7D"></path>
  <path d="M28.2 31.5515H41.8C42.9247 31.5515 43.8398 30.6233 43.8398 29.4826V22.3951L44.857 21.8057C45.0693 21.6831 45.2 21.4543 45.2 21.2072C45.2 20.9602 45.0702 20.7313 44.857 20.6087L35.3376 15.0906C35.128 14.9698 34.8728 14.9698 34.6633 15.0906L25.143 20.6078C24.9307 20.7304 24.8 20.9593 24.8 21.2063C24.8 21.4534 24.9298 21.6822 25.143 21.8048L26.1602 22.3942V29.4817C26.1602 30.6224 27.0753 31.5506 28.2 31.5506V31.5515ZM42.4796 29.4826C42.4796 29.8632 42.1743 30.172 41.8 30.172H28.2C27.8257 30.172 27.5204 29.8632 27.5204 29.4826V23.1835L34.6633 27.323C34.7681 27.3838 34.8836 27.4138 35.0009 27.4138C35.1182 27.4138 35.2337 27.3838 35.3385 27.323L39.0814 25.1542V27.0678C39.0814 27.4492 39.3859 27.7571 39.7611 27.7571C40.1363 27.7571 40.4407 27.4483 40.4407 27.0678V24.3659L42.4805 23.1835V29.4826H42.4796ZM35 16.4838L43.1494 21.2072L39.7602 23.1716L35.3376 20.6087C35.0152 20.4198 34.5962 20.5325 34.409 20.8658C34.2228 21.1963 34.3356 21.6177 34.6624 21.8066L38.3893 23.9663L35 25.9307L26.8506 21.2072L35 16.4838Z" fill="#F57D7D"></path>
  <path d="M18.6796 32.931C19.055 32.931 19.3593 32.6224 19.3593 32.2417C19.3593 31.861 19.055 31.5524 18.6796 31.5524C18.3043 31.5524 18 31.861 18 32.2417C18 32.6224 18.3043 32.931 18.6796 32.931Z" fill="#F57D7D"></path>
</svg>
